<svg xmlns="http://www.w3.org/2000/svg" viewBox="0 0 95.17 95.17"><defs><style>.cls-1{fill:#1976d2;}.cls-2{fill:#fff;}.cls-3{fill:#fbc92f;}</style></defs><title>IAMExplainer</title><g id="Layer_2" data-name="Layer 2"><g id="Layer_1-2" data-name="Layer 1"><circle class="cls-1" cx="47.58" cy="47.58" r="47.58"/><path class="cls-2" d="M47.71,25.46c-13.33,0-23.44,9.83-23.52,22.88A20.42,20.42,0,0,0,27,58.7l-2.62,8.65L33.81,66a24.66,24.66,0,0,0,14,4.25c13,0,23.6-9.82,23.6-21.89C71.39,35.94,60.54,25.46,47.71,25.46Zm.08,40.78A20.67,20.67,0,0,1,36,62.66v0l-7.4,1.07,2-6.69h0a16.47,16.47,0,0,1-2.45-8.65c.07-10.78,8.46-18.9,19.52-18.9,10.48,0,19.68,8.83,19.68,18.89C67.39,58.21,58.6,66.23,47.79,66.23Z"/><circle class="cls-3" cx="37.28" cy="47.45" r="3.23"/><circle class="cls-3" cx="47.68" cy="47.45" r="3.23"/><circle class="cls-3" cx="58.08" cy="47.45" r="3.23"/></g></g></svg>