<svg xmlns="http://www.w3.org/2000/svg" viewBox="0 0 95.17 95.17"><defs><style>.cls-1{fill:#1976d2;}.cls-2{fill:#fff;}.cls-3{fill:#fbc92f;}</style></defs><title>Visibility</title><g id="Layer_2" data-name="Layer 2"><g id="Layer_1-2" data-name="Layer 1"><circle class="cls-1" cx="47.58" cy="47.58" r="47.58"/><path class="cls-2" d="M29.78,40.65s10.93-1.44,15.75-3l2.11,4.83a52.05,52.05,0,0,0-7.3,11.38Z"/><circle class="cls-1" cx="29.5" cy="51.86" r="9.78"/><path class="cls-3" d="M29.5,63.13A11.28,11.28,0,1,1,40.78,51.86,11.29,11.29,0,0,1,29.5,63.13Zm0-19.55a8.28,8.28,0,1,0,8.28,8.28A8.29,8.29,0,0,0,29.5,43.58Z"/><path class="cls-2" d="M68.88,40.91S57,39.33,52.14,37.76l-1.46,4.58s3.14,6.26,5.79,12.29Z"/><path class="cls-2" d="M47.35,46.8a1.57,1.57,0,0,1-1.56-1.36l-.15-1-.09-.05-1,.4a1.63,1.63,0,0,1-.58.11A1.57,1.57,0,0,1,42.61,44l-1.27-2.2a1.58,1.58,0,0,1,.39-2l.84-.65s0-.09,0-.11l-.83-.65a1.57,1.57,0,0,1-.38-2l1.28-2.22a1.56,1.56,0,0,1,1.93-.68l1,.4.09-.05.15-1.06a1.56,1.56,0,0,1,1.55-1.34h2.57a1.57,1.57,0,0,1,1.56,1.36l.15,1,.09.05,1-.4a1.62,1.62,0,0,1,.58-.11,1.57,1.57,0,0,1,1.38.81l1.27,2.2a1.58,1.58,0,0,1-.39,2l-.84.65v.11l.83.65a1.57,1.57,0,0,1,.4,2l-1.3,2.25a1.55,1.55,0,0,1-1.36.79h0a1.57,1.57,0,0,1-.57-.11l-1-.4-.09.05-.15,1.05a1.56,1.56,0,0,1-1.55,1.34Zm1.29-8.69a1,1,0,1,0,1,1A1,1,0,0,0,48.63,38.11Z"/><path class="cls-1" d="M49.92,32.68a.31.31,0,0,1,.32.27l.24,1.71a4.7,4.7,0,0,1,1.09.63l1.6-.64.11,0a.32.32,0,0,1,.28.16L54.85,37a.32.32,0,0,1-.08.41l-1.36,1.06a4.44,4.44,0,0,1,0,1.26l1.36,1.06a.32.32,0,0,1,.08.41l-1.29,2.23a.31.31,0,0,1-.28.16l-.12,0-1.6-.64a4.94,4.94,0,0,1-1.09.63l-.24,1.71a.31.31,0,0,1-.32.27H47.35a.31.31,0,0,1-.32-.27l-.24-1.71a4.7,4.7,0,0,1-1.09-.63l-1.6.64-.11,0a.32.32,0,0,1-.28-.16l-1.29-2.23a.32.32,0,0,1,.08-.41l1.36-1.06a4.44,4.44,0,0,1,0-1.26L42.5,37.42a.32.32,0,0,1-.08-.41l1.29-2.23a.31.31,0,0,1,.28-.16l.12,0,1.6.64a4.94,4.94,0,0,1,1.09-.63L47,33a.31.31,0,0,1,.32-.27h2.57m-1.29,8.69a2.25,2.25,0,1,0-2.25-2.25,2.25,2.25,0,0,0,2.25,2.25m1.29-11.19H47.35a2.82,2.82,0,0,0-2.7,2,2.78,2.78,0,0,0-.66-.08,2.81,2.81,0,0,0-2.45,1.43l-1.28,2.21a2.82,2.82,0,0,0,.4,3.36,2.82,2.82,0,0,0-.43,3.3v0l0,0,1.28,2.21A2.83,2.83,0,0,0,44.64,46a2.82,2.82,0,0,0,2.71,2h2.57a2.82,2.82,0,0,0,2.7-2,2.78,2.78,0,0,0,.66.08,2.81,2.81,0,0,0,2.45-1.43L57,42.47l0,0v0a2.82,2.82,0,0,0-.43-3.3,2.82,2.82,0,0,0,.43-3.3v0l0,0-1.28-2.21a2.83,2.83,0,0,0-3.1-1.35,2.82,2.82,0,0,0-2.71-2Z"/><circle class="cls-1" cx="66.95" cy="51.86" r="9.78"/><path class="cls-3" d="M66.95,63.13A11.28,11.28,0,1,1,78.22,51.86,11.29,11.29,0,0,1,66.95,63.13Zm0-19.55a8.28,8.28,0,1,0,8.28,8.28A8.29,8.29,0,0,0,66.95,43.58Z"/><circle class="cls-2" cx="29.46" cy="51.87" r="5.37"/><circle class="cls-2" cx="66.95" cy="51.86" r="5.37"/></g></g></svg>