<svg xmlns="http://www.w3.org/2000/svg" viewBox="0 0 95.17 95.17"><defs><style>.cls-1{fill:#1976d2;}.cls-2{fill:#fff;}.cls-3{fill:#fbc92f;}</style></defs><title>Detection</title><g id="Layer_2" data-name="Layer 2"><g id="Layer_1-2" data-name="Layer 1"><circle class="cls-1" cx="47.58" cy="47.58" r="47.58"/><path class="cls-2" d="M47.56,74.43a26,26,0,1,1,26-26A26,26,0,0,1,47.56,74.43Zm0-48a22,22,0,1,0,22,22A22,22,0,0,0,47.56,26.43Z"/><circle class="cls-1" cx="47.42" cy="48.56" r="14.87"/><path class="cls-3" d="M47.42,64.93A16.37,16.37,0,1,1,63.79,48.56,16.39,16.39,0,0,1,47.42,64.93Zm0-29.75A13.37,13.37,0,1,0,60.79,48.56,13.39,13.39,0,0,0,47.42,35.18Z"/><circle class="cls-2" cx="47.62" cy="48.67" r="5.43"/><path class="cls-2" d="M47.46,48.83,64.53,29.91s6,.22,5.18,6Z"/><circle class="cls-3" cx="37.76" cy="37.53" r="3.1"/><circle class="cls-3" cx="52.36" cy="62.93" r="3.1"/></g></g></svg>