<svg xmlns="http://www.w3.org/2000/svg" viewBox="0 0 95.17 95.17"><defs><style>.cls-1{fill:#1976d2;}.cls-2{fill:#fff;}.cls-3{fill:#fbc92f;}</style></defs><title>Enforcement</title><g id="Layer_2" data-name="Layer 2"><g id="Layer_1-2" data-name="Layer 1"><circle class="cls-1" cx="47.58" cy="47.58" r="47.58"/><path class="cls-2" d="M31.23,57.39l15.83-7.17V29.89S15.73,26.89,31.23,57.39Z"/><path class="cls-3" d="M47.06,29.89V50.22l16.17,8.17s8-13.5,4.33-21.42S47.06,29.89,47.06,29.89Z"/><path class="cls-2" d="M47.57,73.64l-.77-.26A37.54,37.54,0,0,1,31.61,62.26c-7.33-8.77-6.43-24.83-6.39-25.51l0-.81.61-.55a34.09,34.09,0,0,1,21.51-7.71h.26a33,33,0,0,1,21.29,7.84l.45.43.13.61a33.79,33.79,0,0,1-6.69,25.83l-.09.11c-6,6.75-10.11,8.73-14.13,10.64ZM29.19,37.84c-.07,3.3.06,15.35,5.5,21.85a35.08,35.08,0,0,0,12.68,9.6c3.64-1.74,7.17-3.55,12.33-9.4a30.32,30.32,0,0,0,6-21.89,29.83,29.83,0,0,0-18.09-6.33A30.4,30.4,0,0,0,29.19,37.84Z"/></g></g></svg>