<svg xmlns="http://www.w3.org/2000/svg" width="382" height="382" viewBox="0 0 382 382"><title>Forseti_Sketches_MD</title><circle cx="191" cy="191" r="191" fill="#2278cf"/><path d="M256,194.91A65.57,65.57,0,0,0,155.9,139a12.31,12.31,0,0,0-4.34-.83,12.44,12.44,0,0,0-12.45,12.45,12.29,12.29,0,0,0,.33,2.73,65.44,65.44,0,0,0,60.62,106.44,12.42,12.42,0,0,0,22.54-7.22c0-.17,0-.32,0-.48A65.73,65.73,0,0,0,256,194.91Zm-39.73,46.93a12.33,12.33,0,0,0-17.65,6,53.55,53.55,0,0,1-51-85.45A12.3,12.3,0,0,0,164,150.65a12.69,12.69,0,0,0-.23-2.33,53.64,53.64,0,1,1,52.54,93.52Z" fill="#fdc32d"/><path d="M280.06,140.23c.12-12.48-8.63-17.24-14.89-19a104.14,104.14,0,1,0,14.89,19ZM190.89,282.7a88.31,88.31,0,1,1,59.69-153.31l-44.89,49.76a21.77,21.77,0,1,0,4.41,5.46l57.7-33.54A88.25,88.25,0,0,1,190.89,282.7Z" fill="#fff"/></svg>