<svg xmlns="http://www.w3.org/2000/svg" width="382" height="382" viewBox="0 0 382 382"><title>Forseti_Sketches_MD</title><circle cx="191" cy="191" r="191" fill="#2278cf"/><path d="M191.49,102.18c-53.48,0-94.07,39.48-94.42,91.83a82,82,0,0,0,11.3,41.62L97.88,270.35l37.84-5.49a99,99,0,0,0,56.09,17.06c52.24,0,94.74-39.41,94.74-87.85C286.55,144.26,243,102.18,191.49,102.18Zm.32,163.68a83,83,0,0,1-47.2-14.36v-.09l-29.72,4.31L123,228.88l-.1,0,0,0a66.09,66.09,0,0,1-9.82-34.7c.28-43.26,34-75.88,78.36-75.88,42.08,0,79,35.43,79,75.83C270.49,233.65,235.2,265.86,191.81,265.86Z" fill="#fff"/><path d="M149.66,177.52a13,13,0,1,0,13,13A13,13,0,0,0,149.66,177.52Z" fill="#fdc32d"/><path d="M191.4,177.52a13,13,0,1,0,12.95,13A13,13,0,0,0,191.4,177.52Z" fill="#fdc32d"/><path d="M233.13,177.52a13,13,0,1,0,13,13A13,13,0,0,0,233.13,177.52Z" fill="#fdc32d"/></svg>