<svg xmlns="http://www.w3.org/2000/svg" width="382" height="382" viewBox="0 0 382 382"><title>Forseti-Icons-Master</title><circle cx="191" cy="191" r="191" fill="#2278cf"/><path d="M284.71,117.8a3.61,3.61,0,0,1,3.61,3.61V260.59a3.61,3.61,0,0,1-3.61,3.61H97.29a3.61,3.61,0,0,1-3.61-3.61V121.41a3.61,3.61,0,0,1,3.61-3.61H284.71m0-16.06H97.29a19.69,19.69,0,0,0-19.66,19.67V260.59a19.69,19.69,0,0,0,19.66,19.67H284.71a19.69,19.69,0,0,0,19.66-19.67V121.41a19.69,19.69,0,0,0-19.66-19.67Z" fill="#fff"/><circle cx="257.54" cy="148.56" r="11.27" fill="#fff"/><polygon points="145.11 228.04 128.44 244.71 189.26 244.71 189.26 228.04 145.11 228.04" fill="#fdc32d"/><polygon points="154.36 179.62 153.49 178.74 147.57 172.82 146.55 171.81 112.03 137.29 112.03 161.8 134.3 184.07 135.31 185.08 141.23 191 112.03 220.2 112.03 244.71 165.74 191 154.36 179.62" fill="#fff"/></svg>