<svg xmlns="http://www.w3.org/2000/svg" width="382" height="382" viewBox="0 0 382 382"><title>forseti-enforcement-icon</title><circle cx="191" cy="191" r="191" fill="#2278cf"/><path d="M279.05,146.75l-.52-2.46-1.81-1.72c-1.34-1.27-33.33-31.06-85.46-31.47H190.2c-51.48,0-84.92,29.67-86.33,31l-2.43,2.19-.2,3.27c-.17,2.73-3.76,67.2,25.65,102.41,27.59,33,59.6,44.14,61,44.6l3.09,1,4.18-2c16.14-7.67,32.83-15.61,56.74-42.7l.35-.43C289.91,201.26,279.51,149,279.05,146.75Zm-39.43,93.7c-20.73,23.45-34.88,30.74-49.5,37.72-8-3.38-30.89-14.58-50.9-38.54a67.56,67.56,0,0,1-7.86-12l57.55-26V127.2c.74,0,1.47,0,2.23,0,38.86.3,65.45,19.59,72.6,25.41C265.15,162.89,268.29,202.9,239.62,240.45Z" fill="#fff"/><path d="M263.74,152.57c-7.15-5.82-33.74-25.11-72.6-25.41-.76,0-1.49,0-2.23,0v74.38l57.43,29C267.67,196.15,265,162,263.74,152.57Z" fill="#fdc32d"/></svg>