<svg xmlns="http://www.w3.org/2000/svg" width="382" height="382" viewBox="0 0 382 382"><title>Forseti_Sketches_MD</title><circle cx="191" cy="191" r="191" fill="#2278cf"/><path d="M313.61,191l-10-10h0l-23.9-23.9a3.6,3.6,0,0,0-5.1,0L265,166.61a3.62,3.62,0,0,0,0,5.11l8.84,8.83H208.44a24.29,24.29,0,1,0,0,20.84h65.48l-8.9,8.89a3.62,3.62,0,0,0,0,5.11l9.55,9.54a3.6,3.6,0,0,0,5.1,0l2.1-2.09h0Z" fill="#fdc32d"/><path d="M246.85,223.38h-.09a15.26,15.26,0,0,0-23.18,0h-.06a48.81,48.81,0,1,1,0-64.78h.06a15.26,15.26,0,0,0,23.18,0h.09l14.55-14.55a4,4,0,0,0,0-5.69l-23.55-23.56a4,4,0,0,0-5.69,0l-11.3,11.3a72.25,72.25,0,0,0-11.88-5V105.22a4,4,0,0,0-4-4H169.17a4,4,0,0,0-4,4v15.94a72.71,72.71,0,0,0-11.89,5L142,114.82a4,4,0,0,0-5.7,0l-25.35,25.36a4,4,0,0,0,0,5.69l11.3,11.3a72.28,72.28,0,0,0-5,11.88H101.32a4,4,0,0,0-4,4v35.86a4,4,0,0,0,4,4h15.93a72.28,72.28,0,0,0,5,11.88l-11.3,11.3a4,4,0,0,0,0,5.69l25.35,25.36a4,4,0,0,0,5.7,0l11.29-11.3a72.71,72.71,0,0,0,11.89,5v15.94a4,4,0,0,0,4,4H205a4,4,0,0,0,4-4V260.84a72.25,72.25,0,0,0,11.88-5l11.3,11.3a4,4,0,0,0,5.69,0l23.55-23.56a4,4,0,0,0,0-5.69Z" fill="#fff"/></svg>