<svg xmlns="http://www.w3.org/2000/svg" width="382" height="382" viewBox="0 0 382 382"><title>Forseti_Sketches_MD</title><circle cx="191" cy="191" r="191" fill="#2278cf"/><path d="M118.42,253.41a45.27,45.27,0,1,1,45.26-45.27A45.32,45.32,0,0,1,118.42,253.41Zm0-78.49a33.23,33.23,0,1,0,33.22,33.22A33.26,33.26,0,0,0,118.42,174.92Z" fill="#fdc32d"/><path d="M163.68,208.14a44.88,44.88,0,0,1-.26,4.81,188.91,188.91,0,0,1,16.12-27.22,10.22,10.22,0,0,1-.37-1,10.9,10.9,0,0,1-2.61.31,11.31,11.31,0,0,1-9.85-5.72l-5.13-8.88-.07-.1,0-.11A11.31,11.31,0,0,1,163.17,157c-.27-.28-.49-.6-.73-.9-17.16,3.47-36.41,6.19-41.55,6.89A45.28,45.28,0,0,1,163.68,208.14Z" fill="#fff"/><path d="M219.85,163.8l-5.45-4.26a17.94,17.94,0,0,0,0-5.07l1.34-1h0l4.11-3.22a1.3,1.3,0,0,0,.31-1.65L215,139.62a1.3,1.3,0,0,0-1.58-.56L207,141.64a18.79,18.79,0,0,0-4.36-2.53l-1-6.85a1.25,1.25,0,0,0-1.26-1.08H190.05a1.26,1.26,0,0,0-1.27,1.08l-1,6.85a19.31,19.31,0,0,0-4.36,2.53L177,139.06a1.26,1.26,0,0,0-1.58.56l-5.17,8.94a1.27,1.27,0,0,0,.31,1.65l4.7,3.68.75.58a17.94,17.94,0,0,0,0,5.07l-5.45,4.26a1.23,1.23,0,0,0-.45.76,1.33,1.33,0,0,0,.14.89l5.17,8.94a1.21,1.21,0,0,0,.62.52,1.74,1.74,0,0,0,.22.05,1.53,1.53,0,0,0,.29.07A1.31,1.31,0,0,0,177,175h0l6.43-2.59a18.8,18.8,0,0,0,4.2,2.46h0l.14.07,1,6.85a1.26,1.26,0,0,0,1.27,1.08h10.33a1.25,1.25,0,0,0,1.26-1.08l1-6.85a19.53,19.53,0,0,0,4.36-2.53l6.43,2.59a1.26,1.26,0,0,0,.47.08,1.28,1.28,0,0,0,.28-.07l.21-.06a1.24,1.24,0,0,0,.61-.52h0l5.16-8.94A1.3,1.3,0,0,0,219.85,163.8Zm-24.64,2.25a9,9,0,1,1,9-9A9.06,9.06,0,0,1,195.21,166.05Z" fill="#fff"/><path d="M268.72,253.41A45.27,45.27,0,1,1,314,208.14,45.32,45.32,0,0,1,268.72,253.41Zm0-78.49a33.23,33.23,0,1,0,33.22,33.22A33.25,33.25,0,0,0,268.72,174.92Z" fill="#fdc32d"/><path d="M223.45,208.14a45.29,45.29,0,0,1,43.95-45.2c-9.75-1.42-25.69-3.9-39.49-6.74-.22.27-.41.55-.65.8A11.34,11.34,0,0,1,229,170.26l-.06.11-.06.1-5.13,8.88a11.3,11.3,0,0,1-9.83,5.73,11,11,0,0,1-2.66-.32c-.06.22-.17.43-.24.64,3.66,7.61,8.22,17.27,12.69,27.18C223.54,211.12,223.45,209.64,223.45,208.14Z" fill="#fff"/><circle cx="118.27" cy="208.18" r="21.57" fill="#fff"/><circle cx="268.72" cy="208.14" r="21.57" fill="#fff"/></svg>