<svg xmlns="http://www.w3.org/2000/svg" width="73.78" height="44.87" viewBox="0 0 73.78 44.87"><title>blue-horizontal-logo-lockup-trans</title><path d="M5.37,35.06H2.06v3.4H0V29.93H5.71v1.59H2.06v2H5.37Z" fill="#1976d2"/><path d="M18.29,34.37a5,5,0,0,1-.47,2.21,3.32,3.32,0,0,1-1.31,1.48,3.64,3.64,0,0,1-1.94.52,3.79,3.79,0,0,1-1.94-.5,3.37,3.37,0,0,1-1.31-1.43,4.89,4.89,0,0,1-.5-2.14V34a5.1,5.1,0,0,1,.46-2.21,3.4,3.4,0,0,1,1.32-1.48,3.65,3.65,0,0,1,2-.53,3.7,3.7,0,0,1,1.94.52,3.44,3.44,0,0,1,1.32,1.47A5,5,0,0,1,18.29,34ZM16.2,34a3.65,3.65,0,0,0-.43-1.94,1.37,1.37,0,0,0-1.22-.65c-1,0-1.57.77-1.63,2.32v.62a3.66,3.66,0,0,0,.42,1.93,1.36,1.36,0,0,0,1.24.67,1.34,1.34,0,0,0,1.2-.66,3.63,3.63,0,0,0,.43-1.9Z" fill="#1976d2"/><path d="M27,35.45H25.9v3h-2V29.93h3.36a3.79,3.79,0,0,1,2.37.67,2.29,2.29,0,0,1,.85,1.91A2.76,2.76,0,0,1,30.07,34a2.53,2.53,0,0,1-1.12,1l1.78,3.44v.09H28.52ZM25.9,33.86h1.31a1.15,1.15,0,0,0,.88-.31,1.4,1.4,0,0,0,0-1.72,1.15,1.15,0,0,0-.87-.32H25.9Z" fill="#1976d2"/><path d="M40.58,36.2a.86.86,0,0,0-.32-.71A4,4,0,0,0,39.13,35a10.8,10.8,0,0,1-1.31-.52,2.49,2.49,0,0,1-1.66-2.24A2,2,0,0,1,36.58,31a2.61,2.61,0,0,1,1.17-.84,4.56,4.56,0,0,1,1.7-.31,3.91,3.91,0,0,1,1.64.33,2.59,2.59,0,0,1,1.14.94,2.4,2.4,0,0,1,.4,1.38H40.58a1,1,0,0,0-.32-.81,1.24,1.24,0,0,0-.86-.28,1.41,1.41,0,0,0-.87.24.75.75,0,0,0-.32.62.74.74,0,0,0,.35.59,4.36,4.36,0,0,0,1.24.55,7.49,7.49,0,0,1,1.45.62,2.43,2.43,0,0,1,1.38,2.19,2.08,2.08,0,0,1-.84,1.76,3.72,3.72,0,0,1-2.32.64,4.52,4.52,0,0,1-1.87-.37,2.85,2.85,0,0,1-1.27-1,2.68,2.68,0,0,1-.42-1.49H38a1.34,1.34,0,0,0,.35,1,1.72,1.72,0,0,0,1.15.32,1.32,1.32,0,0,0,.81-.22A.71.71,0,0,0,40.58,36.2Z" fill="#1976d2"/><path d="M53.48,34.84H50.24v2h3.82v1.58H48.19V29.93h5.89v1.59H50.24v1.8h3.24Z" fill="#1976d2"/><path d="M66.22,31.52H63.66v6.94H61.6V31.52H59.09V29.93h7.13Z" fill="#1976d2"/><path d="M73.78,38.46H71.72V29.93h2.06Z" fill="#1976d2"/><path d="M47.88,8.91A17.94,17.94,0,0,0,47.77,4c-6.86-5.26-15.41-5.3-22,0a19.5,19.5,0,0,0-.05,4.94A14.93,14.93,0,0,1,36.82,4.42,14.91,14.91,0,0,1,47.88,8.91" fill="#ffc400" fill-rule="evenodd"/><path d="M46.2,14.53a16.35,16.35,0,0,0,1.28-3.42A13.6,13.6,0,0,0,36.82,6.35,13.62,13.62,0,0,0,26.17,11.1c1.17,5.63,5.31,9.83,10.62,11.87a20.26,20.26,0,0,0,2.29-1.12c-5.3-2.12-9-6.57-9.5-9.42a9.25,9.25,0,0,1,7.24-2.77,11.94,11.94,0,0,1,9.38,4.87" fill="#1976d2" fill-rule="evenodd"/><path d="M2.77,42.29a2,2,0,0,1-.17.86,1.23,1.23,0,0,1-.48.57,1.35,1.35,0,0,1-.73.2,1.34,1.34,0,0,1-.72-.2,1.2,1.2,0,0,1-.49-.57A1.86,1.86,0,0,1,0,42.31v-.19a2.14,2.14,0,0,1,.17-.87,1.31,1.31,0,0,1,.49-.57,1.35,1.35,0,0,1,.73-.2,1.34,1.34,0,0,1,.72.2,1.34,1.34,0,0,1,.49.56,2.09,2.09,0,0,1,.17.86Zm-.58-.18A1.46,1.46,0,0,0,2,41.26a.68.68,0,0,0-.59-.3.68.68,0,0,0-.59.3,1.41,1.41,0,0,0-.22.83v.2a1.41,1.41,0,0,0,.22.85.68.68,0,0,0,.59.3.66.66,0,0,0,.59-.3,1.44,1.44,0,0,0,.21-.85Z" fill="#ffc400"/><path d="M5.47,42.65a1.44,1.44,0,0,1-.26.92.84.84,0,0,1-.7.35.87.87,0,0,1-.66-.27v1.18H3.3V41.39h.51l0,.25a.83.83,0,0,1,.67-.3.83.83,0,0,1,.71.34,1.48,1.48,0,0,1,.26.94Zm-.55,0A1,1,0,0,0,4.77,42a.47.47,0,0,0-.42-.22.52.52,0,0,0-.5.28v1.1a.54.54,0,0,0,.5.29.49.49,0,0,0,.42-.21A1.16,1.16,0,0,0,4.92,42.61Z" fill="#ffc400"/><path d="M7,43.92a1.14,1.14,0,0,1-.86-.34,1.21,1.21,0,0,1-.33-.89v-.07A1.56,1.56,0,0,1,6,42a1.08,1.08,0,0,1,.41-.46A1.11,1.11,0,0,1,7,41.34a1,1,0,0,1,.79.32,1.42,1.42,0,0,1,.28.92v.23H6.41a.76.76,0,0,0,.21.48.61.61,0,0,0,.45.18.76.76,0,0,0,.63-.31l.3.29a1,1,0,0,1-.4.34A1.16,1.16,0,0,1,7,43.92ZM7,41.79A.47.47,0,0,0,6.6,42a.93.93,0,0,0-.18.45H7.48v0a.67.67,0,0,0-.15-.43A.46.46,0,0,0,7,41.79Z" fill="#ffc400"/><path d="M9,41.39v.28a.92.92,0,0,1,.73-.33c.51,0,.78.3.78.89v1.64H10V42.26a.51.51,0,0,0-.11-.35.42.42,0,0,0-.33-.11.54.54,0,0,0-.5.3v1.77H8.46V41.39Z" fill="#ffc400"/><path d="M12.17,42.67H11v-.45h1.21Z" fill="#ffc400"/><path d="M14,43.2A.26.26,0,0,0,13.9,43a1.47,1.47,0,0,0-.41-.14,2.27,2.27,0,0,1-.48-.15.64.64,0,0,1-.42-.59.63.63,0,0,1,.28-.53,1,1,0,0,1,.68-.22,1.09,1.09,0,0,1,.72.22.69.69,0,0,1,.28.57H14a.37.37,0,0,0-.12-.27.46.46,0,0,0-.32-.1.56.56,0,0,0-.3.08.3.3,0,0,0-.11.23.21.21,0,0,0,.11.2,1.16,1.16,0,0,0,.43.14,2.07,2.07,0,0,1,.52.18.67.67,0,0,1,.28.24.59.59,0,0,1,.09.34.66.66,0,0,1-.28.54,1.19,1.19,0,0,1-.73.21,1.33,1.33,0,0,1-.54-.11.88.88,0,0,1-.37-.31.7.7,0,0,1-.14-.41h.54a.4.4,0,0,0,.15.3.6.6,0,0,0,.37.11.5.5,0,0,0,.33-.09A.24.24,0,0,0,14,43.2Z" fill="#ffc400"/><path d="M15,42.61a1.53,1.53,0,0,1,.14-.66,1,1,0,0,1,.41-.45,1.08,1.08,0,0,1,.6-.16,1.11,1.11,0,0,1,.82.32,1.25,1.25,0,0,1,.33.86v.13a1.53,1.53,0,0,1-.14.66,1.11,1.11,0,0,1-.41.45,1.2,1.2,0,0,1-.61.16,1.09,1.09,0,0,1-.84-.35,1.37,1.37,0,0,1-.31-.94Zm.56,0a1,1,0,0,0,.15.6.52.52,0,0,0,.44.22.5.5,0,0,0,.44-.22,1.06,1.06,0,0,0,.16-.64,1,1,0,0,0-.16-.6.55.55,0,0,0-.87,0A1.1,1.1,0,0,0,15.51,42.65Z" fill="#ffc400"/><path d="M19.23,43.63a.85.85,0,0,1-.69.29.78.78,0,0,1-.62-.24,1.06,1.06,0,0,1-.2-.68V41.39h.55V43c0,.31.13.47.4.47a.56.56,0,0,0,.55-.29V41.39h.55v2.48h-.52Z" fill="#ffc400"/><path d="M21.64,41.9a.86.86,0,0,0-.23,0,.51.51,0,0,0-.51.29v1.7h-.56V41.39h.53l0,.27a.63.63,0,0,1,.56-.32.5.5,0,0,1,.19,0Z" fill="#ffc400"/><path d="M23,43.47a.51.51,0,0,0,.35-.12.44.44,0,0,0,.15-.3H24a.76.76,0,0,1-.14.43,1,1,0,0,1-.37.32,1.15,1.15,0,0,1-1.33-.22,1.37,1.37,0,0,1-.3-.93v-.06a1.33,1.33,0,0,1,.3-.91,1.16,1.16,0,0,1,1.55-.08,1,1,0,0,1,.29.68h-.52a.51.51,0,0,0-.15-.35.45.45,0,0,0-.35-.14.5.5,0,0,0-.42.19,1.17,1.17,0,0,0-.15.6v.09a1,1,0,0,0,.15.6A.5.5,0,0,0,23,43.47Z" fill="#ffc400"/><path d="M25.51,43.92a1.12,1.12,0,0,1-.86-.34,1.21,1.21,0,0,1-.33-.89v-.07a1.42,1.42,0,0,1,.14-.66,1.13,1.13,0,0,1,.4-.46,1.18,1.18,0,0,1,.58-.16,1,1,0,0,1,.79.32,1.42,1.42,0,0,1,.27.92v.23H24.88a.81.81,0,0,0,.2.48.65.65,0,0,0,.46.18.74.74,0,0,0,.62-.31l.3.29a1,1,0,0,1-.39.34A1.18,1.18,0,0,1,25.51,43.92Zm-.07-2.13a.46.46,0,0,0-.37.16.77.77,0,0,0-.18.45H26v0a.67.67,0,0,0-.15-.43A.47.47,0,0,0,25.44,41.79Z" fill="#ffc400"/><path d="M28.81,40.78v.61h.43v.41h-.43v1.39a.21.21,0,0,0,.25.26.68.68,0,0,0,.2,0v.43a1.24,1.24,0,0,1-.37.06c-.43,0-.64-.24-.64-.71V41.8h-.41v-.41h.41v-.61Z" fill="#ffc400"/><path d="M29.5,42.61a1.39,1.39,0,0,1,.14-.66,1,1,0,0,1,.41-.45,1.19,1.19,0,0,1,1.41.16,1.26,1.26,0,0,1,.34.86v.13a1.4,1.4,0,0,1-.15.66,1,1,0,0,1-.4.45,1.2,1.2,0,0,1-.61.16,1.09,1.09,0,0,1-.84-.35,1.37,1.37,0,0,1-.31-.94Zm.55,0a1,1,0,0,0,.16.6.52.52,0,0,0,.44.22.5.5,0,0,0,.44-.22,1.06,1.06,0,0,0,.16-.64,1,1,0,0,0-.16-.6.52.52,0,0,0-.44-.22.5.5,0,0,0-.43.21A1.09,1.09,0,0,0,30.05,42.65Z" fill="#ffc400"/><path d="M32.17,42.61a1.4,1.4,0,0,1,.15-.66,1,1,0,0,1,.4-.45,1.13,1.13,0,0,1,.61-.16,1.1,1.1,0,0,1,.81.32,1.31,1.31,0,0,1,.34.86v.13a1.39,1.39,0,0,1-.14.66,1.09,1.09,0,0,1-.4.45,1.23,1.23,0,0,1-.61.16,1.09,1.09,0,0,1-.84-.35,1.37,1.37,0,0,1-.32-.94Zm.56,0a1,1,0,0,0,.16.6.55.55,0,0,0,.88,0,1.14,1.14,0,0,0,.16-.64,1.07,1.07,0,0,0-.16-.6.56.56,0,0,0-.88,0A1.1,1.1,0,0,0,32.73,42.65Z" fill="#ffc400"/><path d="M35.55,43.87H35V40.34h.56Z" fill="#ffc400"/><path d="M37.55,43.2a.26.26,0,0,0-.12-.23,1.47,1.47,0,0,0-.41-.14,2.27,2.27,0,0,1-.48-.15.64.64,0,0,1-.42-.59.63.63,0,0,1,.28-.53,1,1,0,0,1,.68-.22,1.09,1.09,0,0,1,.72.22.69.69,0,0,1,.28.57h-.56a.37.37,0,0,0-.12-.27.46.46,0,0,0-.32-.1.56.56,0,0,0-.3.08.3.3,0,0,0-.11.23.21.21,0,0,0,.11.2,1.16,1.16,0,0,0,.43.14,2.07,2.07,0,0,1,.52.18.58.58,0,0,1,.27.24.53.53,0,0,1,.1.34.66.66,0,0,1-.28.54,1.19,1.19,0,0,1-.73.21,1.33,1.33,0,0,1-.54-.11,1,1,0,0,1-.38-.31.76.76,0,0,1-.13-.41h.54a.4.4,0,0,0,.15.3.6.6,0,0,0,.37.11.52.52,0,0,0,.33-.09A.24.24,0,0,0,37.55,43.2Z" fill="#ffc400"/><path d="M40,43.87V41.8h-.38v-.41H40v-.23a.86.86,0,0,1,.23-.64.87.87,0,0,1,.64-.22,1.15,1.15,0,0,1,.31,0v.43h-.21c-.27,0-.4.13-.4.41v.22H41v.41h-.5v2.07Z" fill="#ffc400"/><path d="M41.31,42.61a1.4,1.4,0,0,1,.15-.66,1,1,0,0,1,.41-.45,1.08,1.08,0,0,1,.6-.16,1.1,1.1,0,0,1,.81.32,1.31,1.31,0,0,1,.34.86v.13a1.39,1.39,0,0,1-.14.66,1.09,1.09,0,0,1-.4.45,1.23,1.23,0,0,1-.61.16,1.09,1.09,0,0,1-.84-.35,1.37,1.37,0,0,1-.32-.94Zm.56,0a1,1,0,0,0,.16.6.51.51,0,0,0,.44.22.5.5,0,0,0,.44-.22,1.28,1.28,0,0,0,0-1.24A.56.56,0,0,0,42,42,1.17,1.17,0,0,0,41.87,42.65Z" fill="#ffc400"/><path d="M45.4,41.9a.9.9,0,0,0-.23,0,.52.52,0,0,0-.52.29v1.7h-.56V41.39h.54v.27a.64.64,0,0,1,.56-.32.56.56,0,0,1,.2,0Z" fill="#ffc400"/><path d="M49.54,43.44a1.23,1.23,0,0,1-.51.36,2,2,0,0,1-.73.12,1.51,1.51,0,0,1-.74-.19,1.27,1.27,0,0,1-.5-.55,1.81,1.81,0,0,1-.18-.83v-.26a1.77,1.77,0,0,1,.36-1.18,1.24,1.24,0,0,1,1-.43,1.32,1.32,0,0,1,.89.28,1.15,1.15,0,0,1,.39.79H49a.65.65,0,0,0-.71-.6.68.68,0,0,0-.59.28,1.53,1.53,0,0,0-.21.83v.25a1.38,1.38,0,0,0,.23.84.74.74,0,0,0,.63.3.83.83,0,0,0,.64-.2V42.6h-.69v-.44h1.27Z" fill="#ffc400"/><path d="M52.73,42.78a1.24,1.24,0,0,1-.4.84,1.34,1.34,0,0,1-.92.3,1.36,1.36,0,0,1-.7-.19,1.3,1.3,0,0,1-.47-.54,1.86,1.86,0,0,1-.17-.81v-.31a1.86,1.86,0,0,1,.17-.84,1.23,1.23,0,0,1,.48-.55,1.34,1.34,0,0,1,.72-.2,1.28,1.28,0,0,1,.89.3,1.25,1.25,0,0,1,.4.85h-.58a.86.86,0,0,0-.21-.52.7.7,0,0,0-.5-.16.67.67,0,0,0-.58.28,1.38,1.38,0,0,0-.21.81v.3a1.44,1.44,0,0,0,.2.82.63.63,0,0,0,.56.29.74.74,0,0,0,.52-.16.81.81,0,0,0,.22-.51Z" fill="#ffc400"/><path d="M53.83,42.63v1.24h-.59V40.53h1.28a1.31,1.31,0,0,1,.89.29,1.07,1.07,0,0,1,0,1.54,1.38,1.38,0,0,1-.9.27Zm0-.47h.69A.74.74,0,0,0,55,42a.57.57,0,0,0,.16-.42.59.59,0,0,0-.17-.44.61.61,0,0,0-.45-.16h-.71Z" fill="#ffc400"/><path d="M58.76,43.2a.26.26,0,0,0-.12-.23,1.47,1.47,0,0,0-.41-.14,2.27,2.27,0,0,1-.48-.15.64.64,0,0,1-.42-.59.66.66,0,0,1,.28-.53,1,1,0,0,1,.68-.22,1.09,1.09,0,0,1,.72.22.69.69,0,0,1,.28.57h-.56a.37.37,0,0,0-.12-.27.46.46,0,0,0-.32-.1.56.56,0,0,0-.3.08.3.3,0,0,0-.11.23.21.21,0,0,0,.11.2,1.16,1.16,0,0,0,.43.14,2.07,2.07,0,0,1,.52.18.67.67,0,0,1,.28.24.59.59,0,0,1,.09.34.66.66,0,0,1-.28.54,1.19,1.19,0,0,1-.73.21,1.33,1.33,0,0,1-.54-.11.88.88,0,0,1-.37-.31.7.7,0,0,1-.14-.41h.54a.4.4,0,0,0,.15.3.62.62,0,0,0,.37.11.5.5,0,0,0,.33-.09A.24.24,0,0,0,58.76,43.2Z" fill="#ffc400"/><path d="M60.89,43.92a1.12,1.12,0,0,1-.86-.34,1.21,1.21,0,0,1-.33-.89v-.07a1.56,1.56,0,0,1,.14-.66,1.13,1.13,0,0,1,.4-.46,1.18,1.18,0,0,1,.58-.16,1,1,0,0,1,.79.32,1.42,1.42,0,0,1,.27.92v.23H60.26a.76.76,0,0,0,.21.48.6.6,0,0,0,.45.18.74.74,0,0,0,.62-.31l.3.29a1,1,0,0,1-.39.34A1.18,1.18,0,0,1,60.89,43.92Zm-.07-2.13a.46.46,0,0,0-.37.16.84.84,0,0,0-.18.45h1.06v0a.67.67,0,0,0-.15-.43A.47.47,0,0,0,60.82,41.79Z" fill="#ffc400"/><path d="M63.34,43.47a.49.49,0,0,0,.34-.12.44.44,0,0,0,.15-.3h.53a.86.86,0,0,1-.15.43.89.89,0,0,1-.37.32,1.06,1.06,0,0,1-.5.12,1.07,1.07,0,0,1-.82-.34,1.32,1.32,0,0,1-.31-.93v-.06a1.33,1.33,0,0,1,.3-.91,1.06,1.06,0,0,1,.83-.34,1,1,0,0,1,.72.26.92.92,0,0,1,.3.68h-.53a.47.47,0,0,0-.15-.35.42.42,0,0,0-.34-.14.5.5,0,0,0-.42.19,1,1,0,0,0-.15.6v.09a1,1,0,0,0,.15.6A.48.48,0,0,0,63.34,43.47Z" fill="#ffc400"/><path d="M66.28,43.63a.86.86,0,0,1-.7.29.78.78,0,0,1-.61-.24,1,1,0,0,1-.21-.68V41.39h.56V43c0,.31.13.47.4.47a.54.54,0,0,0,.54-.29V41.39h.56v2.48H66.3Z" fill="#ffc400"/><path d="M68.69,41.9a.86.86,0,0,0-.23,0,.51.51,0,0,0-.51.29v1.7h-.56V41.39h.53v.27a.66.66,0,0,1,.57-.32.54.54,0,0,1,.19,0Z" fill="#ffc400"/><path d="M69,40.74a.27.27,0,0,1,.09-.21.34.34,0,0,1,.46,0,.27.27,0,0,1,.09.21.26.26,0,0,1-.09.21.34.34,0,0,1-.46,0A.26.26,0,0,1,69,40.74Zm.6,3.13h-.56V41.39h.56Z" fill="#ffc400"/><path d="M70.94,40.78v.61h.44v.41h-.44v1.39a.28.28,0,0,0,.06.2.27.27,0,0,0,.2.06.62.62,0,0,0,.19,0v.43a1.13,1.13,0,0,1-.36.06c-.43,0-.65-.24-.65-.71V41.8H70v-.41h.4v-.61Z" fill="#ffc400"/><path d="M72.68,43.07l.5-1.68h.6l-1,2.86a.79.79,0,0,1-.77.62.93.93,0,0,1-.27,0V44.4h.1a.56.56,0,0,0,.32-.08.51.51,0,0,0,.17-.26l.08-.21-.87-2.47h.6Z" fill="#ffc400"/></svg>