<svg xmlns="http://www.w3.org/2000/svg" width="56.5" height="59.5" viewBox="0 0 56.5 59.5"><title>blue-logo</title><rect width="56.5" height="59.5" fill="#1976d2"/><path d="M53.07,24a40.91,40.91,0,0,0-.26-11.13C37.44,1.07,18.25,1,3.57,12.86A44.37,44.37,0,0,0,3.46,24C9,17.87,18,13.9,28.25,13.9s19.3,4,24.82,10.09" fill="#ffc400" fill-rule="evenodd"/><path d="M49.3,36.58a37.12,37.12,0,0,0,2.87-7.66C47,22.47,38.23,18.22,28.25,18.22S9.5,22.46,4.35,28.9C7,41.53,16.28,50.93,28.19,55.51A46,46,0,0,0,33.32,53C21.44,48.24,13.06,38.26,12,31.87c4.51-4.18,8.46-6.22,16.26-6.22S44.83,30,49.3,36.58" fill="#fff" fill-rule="evenodd"/></svg>