<svg xmlns="http://www.w3.org/2000/svg" width="103.08" height="22.97" viewBox="0 0 103.08 22.97"><title>blue-vertical-logo-lockup-trans</title><path d="M34.68,9.78H31.36v3.4H29.31V4.64H35V6.23H31.36v2h3.32Z" fill="#1976d2"/><path d="M47.59,9.09a5.05,5.05,0,0,1-.46,2.21,3.42,3.42,0,0,1-1.31,1.47,3.95,3.95,0,0,1-3.88,0,3.45,3.45,0,0,1-1.32-1.43,5,5,0,0,1-.49-2.14V8.74a5,5,0,0,1,.46-2.21,3.46,3.46,0,0,1,1.32-1.48,3.65,3.65,0,0,1,2-.52A3.72,3.72,0,0,1,45.8,5a3.63,3.63,0,0,1,1.32,1.47,4.92,4.92,0,0,1,.47,2.18ZM45.5,8.73a3.61,3.61,0,0,0-.42-1.93,1.37,1.37,0,0,0-1.22-.66c-1,0-1.57.77-1.63,2.32v.63A3.65,3.65,0,0,0,42.64,11a1.45,1.45,0,0,0,2.44,0,3.61,3.61,0,0,0,.42-1.91Z" fill="#1976d2"/><path d="M56.33,10.16H55.21v3H53.16V4.64h3.35a3.76,3.76,0,0,1,2.38.68,2.27,2.27,0,0,1,.85,1.9,2.74,2.74,0,0,1-.36,1.47,2.5,2.5,0,0,1-1.13,1L60,13.09v.09h-2.2ZM55.21,8.58h1.3a1.06,1.06,0,0,0,1.18-1.17,1.21,1.21,0,0,0-.3-.87,1.15,1.15,0,0,0-.88-.31h-1.3Z" fill="#1976d2"/><path d="M69.88,10.91a.81.81,0,0,0-.32-.7,3.77,3.77,0,0,0-1.12-.53,10.8,10.8,0,0,1-1.31-.52,2.48,2.48,0,0,1-1.66-2.24,2,2,0,0,1,.41-1.25,2.72,2.72,0,0,1,1.17-.84,4.6,4.6,0,0,1,1.7-.3,3.92,3.92,0,0,1,1.65.33,2.57,2.57,0,0,1,1.14.93,2.44,2.44,0,0,1,.4,1.39h-2a1,1,0,0,0-.32-.81,1.24,1.24,0,0,0-.86-.29,1.41,1.41,0,0,0-.87.24.72.72,0,0,0,0,1.22,4.56,4.56,0,0,0,1.23.55,7.65,7.65,0,0,1,1.46.61,2.44,2.44,0,0,1,1.38,2.2,2.07,2.07,0,0,1-.84,1.75,3.76,3.76,0,0,1-2.32.64,4.57,4.57,0,0,1-1.88-.37,2.82,2.82,0,0,1-1.26-1,2.68,2.68,0,0,1-.43-1.49h2.07a1.29,1.29,0,0,0,.35,1,1.66,1.66,0,0,0,1.15.33,1.39,1.39,0,0,0,.81-.22A.73.73,0,0,0,69.88,10.91Z" fill="#1976d2"/><path d="M82.79,9.56H79.55v2h3.82v1.59H77.5V4.64h5.88V6.23H79.55V8h3.24Z" fill="#1976d2"/><path d="M95.52,6.23H93v7h-2V6.23H88.39V4.64h7.13Z" fill="#1976d2"/><path d="M103.08,13.18h-2V4.64h2Z" fill="#1976d2"/><path d="M22.25,8.91A18.35,18.35,0,0,0,22.13,4C15.28-1.3,6.72-1.34.18,4a19.5,19.5,0,0,0,0,4.94,15,15,0,0,1,11-4.48A14.93,14.93,0,0,1,22.25,8.91" fill="#ffc400" fill-rule="evenodd"/><path d="M20.57,14.53a16.9,16.9,0,0,0,1.27-3.42A13.6,13.6,0,0,0,11.18,6.35,13.62,13.62,0,0,0,.53,11.1C1.7,16.73,5.84,20.93,11.15,23a19.46,19.46,0,0,0,2.29-1.12c-5.3-2.12-9-6.57-9.5-9.42a9.26,9.26,0,0,1,7.25-2.77,12,12,0,0,1,9.38,4.87" fill="#1976d2" fill-rule="evenodd"/><path d="M32.08,17a2.09,2.09,0,0,1-.17.86,1.23,1.23,0,0,1-.48.57,1.43,1.43,0,0,1-1.46,0,1.34,1.34,0,0,1-.49-.56,2.08,2.08,0,0,1-.17-.85v-.19a2.09,2.09,0,0,1,.17-.86,1.4,1.4,0,0,1,.49-.58,1.48,1.48,0,0,1,1.45,0,1.31,1.31,0,0,1,.49.57,2,2,0,0,1,.17.85Zm-.58-.17a1.48,1.48,0,0,0-.21-.86.7.7,0,0,0-.6-.29.68.68,0,0,0-.58.29,1.38,1.38,0,0,0-.22.84V17a1.46,1.46,0,0,0,.21.85.7.7,0,0,0,.6.3.69.69,0,0,0,.59-.29A1.48,1.48,0,0,0,31.5,17Z" fill="#ffc400"/><path d="M34.78,17.37a1.52,1.52,0,0,1-.26.92.84.84,0,0,1-.7.34.85.85,0,0,1-.66-.27v1.18H32.6V16.1h.52l0,.25a.83.83,0,0,1,.67-.3.86.86,0,0,1,.71.34,1.54,1.54,0,0,1,.26.94Zm-.56-.05a1,1,0,0,0-.14-.59.48.48,0,0,0-.43-.22.51.51,0,0,0-.49.28V17.9a.52.52,0,0,0,.5.28.47.47,0,0,0,.41-.21A1.06,1.06,0,0,0,34.22,17.32Z" fill="#ffc400"/><path d="M36.35,18.63a1.15,1.15,0,0,1-.86-.33,1.22,1.22,0,0,1-.33-.89v-.07a1.46,1.46,0,0,1,.14-.67,1.17,1.17,0,0,1,.4-.45,1.09,1.09,0,0,1,.58-.17,1,1,0,0,1,.79.33,1.37,1.37,0,0,1,.27.91v.23H35.72a.84.84,0,0,0,.2.49.64.64,0,0,0,.46.17.74.74,0,0,0,.62-.31l.3.29a1,1,0,0,1-.39.35A1.31,1.31,0,0,1,36.35,18.63Zm-.07-2.13a.46.46,0,0,0-.37.16.77.77,0,0,0-.18.45h1.06v0a.67.67,0,0,0-.15-.43A.47.47,0,0,0,36.28,16.5Z" fill="#ffc400"/><path d="M38.29,16.1l0,.29a.89.89,0,0,1,.72-.34c.52,0,.78.3.79.89v1.64h-.56V17a.52.52,0,0,0-.1-.35.45.45,0,0,0-.33-.11.52.52,0,0,0-.5.31v1.76h-.56V16.1Z" fill="#ffc400"/><path d="M41.47,17.39h-1.2v-.45h1.2Z" fill="#ffc400"/><path d="M43.33,17.91a.26.26,0,0,0-.13-.23,1.38,1.38,0,0,0-.4-.14,2.27,2.27,0,0,1-.48-.15.63.63,0,0,1-.42-.58.65.65,0,0,1,.27-.54,1.1,1.1,0,0,1,.69-.22,1.14,1.14,0,0,1,.72.22.72.72,0,0,1,.28.58H43.3a.34.34,0,0,0-.12-.27.48.48,0,0,0-.32-.11.49.49,0,0,0-.3.09.27.27,0,0,0-.11.22.21.21,0,0,0,.1.2,1.53,1.53,0,0,0,.44.15,2.11,2.11,0,0,1,.52.17.8.8,0,0,1,.27.24.62.62,0,0,1,.09.34.65.65,0,0,1-.27.54,1.19,1.19,0,0,1-.73.21,1.38,1.38,0,0,1-.55-.11.91.91,0,0,1-.37-.3.72.72,0,0,1-.13-.42h.54a.44.44,0,0,0,.15.31.58.58,0,0,0,.37.1.62.62,0,0,0,.33-.08A.26.26,0,0,0,43.33,17.91Z" fill="#ffc400"/><path d="M44.26,17.32a1.45,1.45,0,0,1,.14-.66,1.11,1.11,0,0,1,.41-.45,1.17,1.17,0,0,1,.6-.16,1.06,1.06,0,0,1,.81.33,1.22,1.22,0,0,1,.34.86v.13a1.38,1.38,0,0,1-.14.65.93.93,0,0,1-.4.45,1.13,1.13,0,0,1-.61.16,1.09,1.09,0,0,1-.84-.35,1.32,1.32,0,0,1-.31-.93Zm.55.05A1.07,1.07,0,0,0,45,18a.52.52,0,0,0,.44.21.5.5,0,0,0,.44-.22,1,1,0,0,0,.16-.64,1,1,0,0,0-.16-.6.54.54,0,0,0-.44-.22.52.52,0,0,0-.44.22A1.13,1.13,0,0,0,44.81,17.37Z" fill="#ffc400"/><path d="M48.54,18.34a.88.88,0,0,1-.7.29.76.76,0,0,1-.61-.24,1,1,0,0,1-.21-.68V16.1h.56v1.6c0,.32.13.47.39.47a.53.53,0,0,0,.55-.29V16.1h.56v2.48h-.52Z" fill="#ffc400"/><path d="M51,16.61l-.23,0a.51.51,0,0,0-.51.3v1.69h-.56V16.1h.53v.28a.64.64,0,0,1,.56-.33.4.4,0,0,1,.2,0Z" fill="#ffc400"/><path d="M52.28,18.18a.53.53,0,0,0,.35-.12.39.39,0,0,0,.14-.3h.53a.83.83,0,0,1-.15.43.93.93,0,0,1-.36.32,1.08,1.08,0,0,1-.5.12,1,1,0,0,1-.83-.34,1.34,1.34,0,0,1-.31-.93V17.3a1.29,1.29,0,0,1,.31-.9,1,1,0,0,1,.82-.35,1.05,1.05,0,0,1,.73.26,1,1,0,0,1,.29.68h-.53a.48.48,0,0,0-.49-.49.5.5,0,0,0-.42.2,1,1,0,0,0-.15.59v.09a1,1,0,0,0,.15.61A.5.5,0,0,0,52.28,18.18Z" fill="#ffc400"/><path d="M54.81,18.63A1.17,1.17,0,0,1,54,18.3a1.22,1.22,0,0,1-.33-.89v-.07a1.47,1.47,0,0,1,.15-.67,1.09,1.09,0,0,1,.4-.45,1.06,1.06,0,0,1,.58-.17,1,1,0,0,1,.78.33,1.32,1.32,0,0,1,.28.91v.23H54.19a.73.73,0,0,0,.2.49.61.61,0,0,0,.46.17.74.74,0,0,0,.62-.31l.3.29a1,1,0,0,1-.4.35A1.25,1.25,0,0,1,54.81,18.63Zm-.06-2.13a.44.44,0,0,0-.37.16.77.77,0,0,0-.18.45h1.06v0a.67.67,0,0,0-.15-.43A.49.49,0,0,0,54.75,16.5Z" fill="#ffc400"/><path d="M58.11,15.5v.6h.44v.41h-.44V17.9a.33.33,0,0,0,.06.21.27.27,0,0,0,.2.06l.2,0v.43a1.64,1.64,0,0,1-.37.05c-.43,0-.64-.24-.64-.71V16.51h-.41V16.1h.41v-.6Z" fill="#ffc400"/><path d="M58.8,17.32a1.45,1.45,0,0,1,.15-.66,1.17,1.17,0,0,1,.4-.45,1.23,1.23,0,0,1,.61-.16,1.07,1.07,0,0,1,.81.33,1.27,1.27,0,0,1,.34.86v.13A1.38,1.38,0,0,1,61,18a1,1,0,0,1-.4.45,1.13,1.13,0,0,1-.61.16,1.09,1.09,0,0,1-.84-.35,1.33,1.33,0,0,1-.32-.93Zm.56.05a1,1,0,0,0,.16.6.52.52,0,0,0,.44.21A.5.5,0,0,0,60.4,18a1,1,0,0,0,.16-.64,1.07,1.07,0,0,0-.16-.6A.54.54,0,0,0,60,16.5a.51.51,0,0,0-.44.22A1.13,1.13,0,0,0,59.36,17.37Z" fill="#ffc400"/><path d="M61.48,17.32a1.45,1.45,0,0,1,.15-.66,1.09,1.09,0,0,1,.4-.45,1.22,1.22,0,0,1,.6-.16,1.08,1.08,0,0,1,.82.33,1.27,1.27,0,0,1,.34.86v.13a1.51,1.51,0,0,1-.14.65,1,1,0,0,1-.41.45,1.19,1.19,0,0,1-1.44-.19,1.33,1.33,0,0,1-.32-.93Zm.56.05a1,1,0,0,0,.16.6.56.56,0,0,0,.88,0,1.12,1.12,0,0,0,.15-.64,1,1,0,0,0-.16-.6.52.52,0,0,0-.44-.22.5.5,0,0,0-.43.22A1.06,1.06,0,0,0,62,17.37Z" fill="#ffc400"/><path d="M64.86,18.58H64.3V15.06h.56Z" fill="#ffc400"/><path d="M66.86,17.91a.26.26,0,0,0-.13-.23,1.36,1.36,0,0,0-.41-.14,2.37,2.37,0,0,1-.47-.15.63.63,0,0,1-.42-.58.65.65,0,0,1,.27-.54,1.1,1.1,0,0,1,.69-.22,1.14,1.14,0,0,1,.72.22.72.72,0,0,1,.27.58h-.55a.34.34,0,0,0-.12-.27.48.48,0,0,0-.32-.11.49.49,0,0,0-.3.09.24.24,0,0,0-.11.22.21.21,0,0,0,.1.2,1.53,1.53,0,0,0,.44.15,2.11,2.11,0,0,1,.52.17.8.8,0,0,1,.27.24.62.62,0,0,1,.09.34.65.65,0,0,1-.27.54,1.19,1.19,0,0,1-.73.21,1.35,1.35,0,0,1-.55-.11.85.85,0,0,1-.37-.3.72.72,0,0,1-.13-.42h.54a.44.44,0,0,0,.15.31.58.58,0,0,0,.37.1.62.62,0,0,0,.33-.08A.26.26,0,0,0,66.86,17.91Z" fill="#ffc400"/><path d="M69.26,18.58V16.51h-.38V16.1h.38v-.23a.84.84,0,0,1,.23-.64.86.86,0,0,1,.64-.22,1.15,1.15,0,0,1,.31,0v.44a.72.72,0,0,0-.22,0,.36.36,0,0,0-.4.41v.22h.51v.41h-.51v2.07Z" fill="#ffc400"/><path d="M70.62,17.32a1.45,1.45,0,0,1,.15-.66,1.09,1.09,0,0,1,.4-.45,1.22,1.22,0,0,1,.6-.16,1.08,1.08,0,0,1,.82.33,1.27,1.27,0,0,1,.34.86v.13a1.38,1.38,0,0,1-.14.65,1,1,0,0,1-.4.45,1.13,1.13,0,0,1-.61.16,1.09,1.09,0,0,1-.84-.35,1.33,1.33,0,0,1-.32-.93Zm.56.05a1,1,0,0,0,.16.6.56.56,0,0,0,.88,0,1.12,1.12,0,0,0,.16-.64,1,1,0,0,0-.17-.6.52.52,0,0,0-.44-.22.5.5,0,0,0-.43.22A1.06,1.06,0,0,0,71.18,17.37Z" fill="#ffc400"/><path d="M74.7,16.61l-.22,0a.51.51,0,0,0-.52.3v1.69H73.4V16.1h.53l0,.28a.62.62,0,0,1,.56-.33.42.42,0,0,1,.2,0Z" fill="#ffc400"/><path d="M78.84,18.15a1,1,0,0,1-.5.36,2.07,2.07,0,0,1-.73.12,1.38,1.38,0,0,1-.74-.19,1.27,1.27,0,0,1-.5-.55,1.77,1.77,0,0,1-.18-.82V16.8a1.79,1.79,0,0,1,.36-1.18,1.26,1.26,0,0,1,1-.42,1.37,1.37,0,0,1,.89.27,1.18,1.18,0,0,1,.39.8h-.57a.64.64,0,0,0-.7-.61.69.69,0,0,0-.59.28,1.39,1.39,0,0,0-.21.83V17a1.38,1.38,0,0,0,.23.84.74.74,0,0,0,.63.3.84.84,0,0,0,.64-.21v-.65h-.69v-.44h1.26Z" fill="#ffc400"/><path d="M82,17.5a1.19,1.19,0,0,1-.39.83,1.36,1.36,0,0,1-.92.3,1.27,1.27,0,0,1-.7-.19,1.3,1.3,0,0,1-.47-.54,1.86,1.86,0,0,1-.17-.81v-.31a2,2,0,0,1,.16-.83,1.34,1.34,0,0,1,.49-.56,1.31,1.31,0,0,1,.72-.19,1.28,1.28,0,0,1,.89.3,1.17,1.17,0,0,1,.39.84h-.58a.76.76,0,0,0-.21-.52.7.7,0,0,0-.49-.16.68.68,0,0,0-.58.28,1.35,1.35,0,0,0-.21.81v.3a1.48,1.48,0,0,0,.19.83.64.64,0,0,0,.57.28.79.79,0,0,0,.52-.15.86.86,0,0,0,.21-.51Z" fill="#ffc400"/><path d="M83.13,17.34v1.24h-.58V15.24h1.28a1.32,1.32,0,0,1,.89.29,1,1,0,0,1,.33.78,1,1,0,0,1-.32.76,1.39,1.39,0,0,1-.91.27Zm0-.46h.7a.65.65,0,0,0,.47-.15.54.54,0,0,0,.17-.42.56.56,0,0,0-.17-.43.61.61,0,0,0-.45-.17h-.72Z" fill="#ffc400"/><path d="M88.07,17.91a.26.26,0,0,0-.13-.23,1.28,1.28,0,0,0-.4-.14,2.27,2.27,0,0,1-.48-.15.63.63,0,0,1-.42-.58.65.65,0,0,1,.27-.54,1.1,1.1,0,0,1,.69-.22,1.14,1.14,0,0,1,.72.22.72.72,0,0,1,.28.58H88a.34.34,0,0,0-.12-.27.48.48,0,0,0-.32-.11.49.49,0,0,0-.3.09.27.27,0,0,0-.11.22.21.21,0,0,0,.1.2,1.53,1.53,0,0,0,.44.15,2.11,2.11,0,0,1,.52.17.8.8,0,0,1,.27.24.62.62,0,0,1,.09.34.65.65,0,0,1-.27.54,1.19,1.19,0,0,1-.73.21,1.38,1.38,0,0,1-.55-.11.91.91,0,0,1-.37-.3.72.72,0,0,1-.13-.42h.54a.44.44,0,0,0,.15.31.58.58,0,0,0,.37.1.62.62,0,0,0,.33-.08A.26.26,0,0,0,88.07,17.91Z" fill="#ffc400"/><path d="M90.19,18.63a1.17,1.17,0,0,1-.86-.33,1.22,1.22,0,0,1-.33-.89v-.07a1.47,1.47,0,0,1,.15-.67,1.09,1.09,0,0,1,.4-.45,1.06,1.06,0,0,1,.58-.17,1,1,0,0,1,.78.33,1.32,1.32,0,0,1,.28.91v.23H89.57a.73.73,0,0,0,.2.49.61.61,0,0,0,.46.17.74.74,0,0,0,.62-.31l.3.29a1,1,0,0,1-.4.35A1.25,1.25,0,0,1,90.19,18.63Zm-.06-2.13a.44.44,0,0,0-.37.16.77.77,0,0,0-.18.45h1.06v0a.67.67,0,0,0-.15-.43A.49.49,0,0,0,90.13,16.5Z" fill="#ffc400"/><path d="M92.64,18.18a.51.51,0,0,0,.35-.12.44.44,0,0,0,.15-.3h.52a.74.74,0,0,1-.14.43.89.89,0,0,1-.37.32,1.15,1.15,0,0,1-1.33-.22,1.33,1.33,0,0,1-.3-.93V17.3a1.29,1.29,0,0,1,.3-.9,1.14,1.14,0,0,1,1.55-.09.91.91,0,0,1,.29.68h-.52a.54.54,0,0,0-.15-.35.48.48,0,0,0-.35-.14.47.47,0,0,0-.41.2,1,1,0,0,0-.15.59v.09a1.12,1.12,0,0,0,.14.61A.5.5,0,0,0,92.64,18.18Z" fill="#ffc400"/><path d="M95.59,18.34a.88.88,0,0,1-.7.29.76.76,0,0,1-.61-.24,1,1,0,0,1-.21-.68V16.1h.56v1.6c0,.32.13.47.39.47a.54.54,0,0,0,.55-.29V16.1h.56v2.48H95.6Z" fill="#ffc400"/><path d="M98,16.61l-.23,0a.51.51,0,0,0-.52.3v1.69H96.7V16.1h.53v.28a.63.63,0,0,1,.56-.33.4.4,0,0,1,.2,0Z" fill="#ffc400"/><path d="M98.35,15.46a.33.33,0,0,1,.08-.22.32.32,0,0,1,.24-.08.28.28,0,0,1,.23.08.29.29,0,0,1,.08.22.24.24,0,0,1-.08.2.29.29,0,0,1-.23.09.32.32,0,0,1-.24-.09A.28.28,0,0,1,98.35,15.46Zm.59,3.12h-.55V16.1h.55Z" fill="#ffc400"/><path d="M100.25,15.5v.6h.44v.41h-.44V17.9a.33.33,0,0,0,.06.21.25.25,0,0,0,.2.06l.19,0v.43a1.57,1.57,0,0,1-.37.05c-.42,0-.64-.24-.64-.71V16.51h-.41V16.1h.41v-.6Z" fill="#ffc400"/><path d="M102,17.78l.51-1.68h.59l-1,2.86a.81.81,0,0,1-.78.63,1.27,1.27,0,0,1-.26,0v-.44h.1a.56.56,0,0,0,.32-.08.51.51,0,0,0,.17-.26l.08-.21-.87-2.47h.6Z" fill="#ffc400"/></svg>