<svg xmlns="http://www.w3.org/2000/svg" width="110.5" height="29" viewBox="0 0 110.5 29"><title>blue-vertical-logo-lockup</title><rect width="110.5" height="29" fill="#1976d2"/><path d="M38.4,12.79H35.09v3.4H33V7.66h5.71V9.25H35.09v2H38.4Z" fill="#fff"/><path d="M51.32,12.1a5.16,5.16,0,0,1-.46,2.21,3.4,3.4,0,0,1-1.32,1.48,3.64,3.64,0,0,1-1.94.52,3.79,3.79,0,0,1-1.94-.5,3.43,3.43,0,0,1-1.31-1.43,4.92,4.92,0,0,1-.5-2.14v-.48a5.18,5.18,0,0,1,.46-2.22,3.43,3.43,0,0,1,1.32-1.47,3.87,3.87,0,0,1,3.89,0,3.38,3.38,0,0,1,1.32,1.47,4.89,4.89,0,0,1,.48,2.18Zm-2.09-.35a3.65,3.65,0,0,0-.43-1.94,1.35,1.35,0,0,0-1.21-.65c-1,0-1.58.77-1.64,2.32v.62A3.67,3.67,0,0,0,46.36,14a1.36,1.36,0,0,0,1.24.67A1.34,1.34,0,0,0,48.8,14a3.63,3.63,0,0,0,.43-1.9Z" fill="#fff"/><path d="M60.05,13.17H58.94v3H56.88V7.66h3.36a3.79,3.79,0,0,1,2.37.67,2.29,2.29,0,0,1,.85,1.91,2.76,2.76,0,0,1-.36,1.47,2.53,2.53,0,0,1-1.12.95l1.78,3.44v.09H61.55Zm-1.11-1.58h1.3a1.15,1.15,0,0,0,.88-.31,1.17,1.17,0,0,0,.29-.86,1.24,1.24,0,0,0-.29-.86,1.17,1.17,0,0,0-.88-.32h-1.3Z" fill="#fff"/><path d="M73.61,13.92a.85.85,0,0,0-.32-.7,3.94,3.94,0,0,0-1.12-.52,10.39,10.39,0,0,1-1.32-.52A2.48,2.48,0,0,1,69.2,9.94a2,2,0,0,1,.41-1.25,2.61,2.61,0,0,1,1.17-.84,4.37,4.37,0,0,1,1.7-.31,4,4,0,0,1,1.65.33,2.62,2.62,0,0,1,1.13.94,2.4,2.4,0,0,1,.4,1.38h-2a1,1,0,0,0-.32-.81,1.24,1.24,0,0,0-.86-.28,1.41,1.41,0,0,0-.87.24.71.71,0,0,0,0,1.21,4.5,4.5,0,0,0,1.24.55,7.49,7.49,0,0,1,1.45.62,2.43,2.43,0,0,1,1.38,2.19,2.08,2.08,0,0,1-.84,1.76,3.71,3.71,0,0,1-2.31.64,4.54,4.54,0,0,1-1.88-.37,2.91,2.91,0,0,1-1.27-1,2.68,2.68,0,0,1-.42-1.49H71a1.34,1.34,0,0,0,.35,1,1.73,1.73,0,0,0,1.16.32,1.29,1.29,0,0,0,.8-.22A.71.71,0,0,0,73.61,13.92Z" fill="#fff"/><path d="M86.51,12.57H83.28v2H87.1v1.58H81.22V7.66h5.89V9.25H83.28v1.8h3.23Z" fill="#fff"/><path d="M99.25,9.25H96.69v6.94H94.63V9.25H92.12V7.66h7.13Z" fill="#fff"/><path d="M106.81,16.19h-2V7.66h2Z" fill="#fff"/><path d="M26,11.93a18.41,18.41,0,0,0-.11-5C19,1.72,10.45,1.68,3.9,7a20.47,20.47,0,0,0,0,4.94A15,15,0,0,1,14.91,7.44,14.92,14.92,0,0,1,26,11.93" fill="#ffc50f" fill-rule="evenodd"/><path d="M24.29,17.55a16.56,16.56,0,0,0,1.28-3.42A13.64,13.64,0,0,0,14.91,9.36,13.62,13.62,0,0,0,4.25,14.12C5.43,19.75,9.57,23.94,14.88,26a21.07,21.07,0,0,0,2.29-1.11c-5.3-2.13-9-6.58-9.51-9.43a9.28,9.28,0,0,1,7.25-2.77,11.94,11.94,0,0,1,9.38,4.88" fill="#fff" fill-rule="evenodd"/><path d="M35.8,20a2,2,0,0,1-.17.86,1.23,1.23,0,0,1-.48.57,1.41,1.41,0,0,1-1.45,0,1.25,1.25,0,0,1-.49-.57A1.9,1.9,0,0,1,33,20v-.18A2.14,2.14,0,0,1,33.2,19a1.31,1.31,0,0,1,.49-.57,1.38,1.38,0,0,1,.73-.2,1.34,1.34,0,0,1,.72.2,1.28,1.28,0,0,1,.49.56,2.09,2.09,0,0,1,.17.86Zm-.58-.18A1.46,1.46,0,0,0,35,19a.73.73,0,0,0-1.18,0,1.41,1.41,0,0,0-.22.83V20a1.41,1.41,0,0,0,.22.85.74.74,0,0,0,1.19,0,1.52,1.52,0,0,0,.2-.85Z" fill="#ffc50f"/><path d="M38.5,20.38a1.44,1.44,0,0,1-.26.92.89.89,0,0,1-1.35.08v1.17h-.56V19.12h.51l0,.25a.8.8,0,0,1,.66-.3.85.85,0,0,1,.72.34,1.52,1.52,0,0,1,.25.94ZM38,20.33a1,1,0,0,0-.15-.58.47.47,0,0,0-.42-.22.51.51,0,0,0-.49.28v1.1a.51.51,0,0,0,.49.29A.49.49,0,0,0,37.8,21,1.17,1.17,0,0,0,38,20.33Z" fill="#ffc50f"/><path d="M40.07,21.65a1.18,1.18,0,0,1-.86-.34,1.21,1.21,0,0,1-.33-.89v-.07a1.56,1.56,0,0,1,.14-.66,1.08,1.08,0,0,1,.41-.46,1,1,0,0,1,.58-.16,1,1,0,0,1,.78.32,1.42,1.42,0,0,1,.28.92v.22H39.44a.77.77,0,0,0,.21.49.61.61,0,0,0,.45.18.75.75,0,0,0,.63-.31l.3.29a1,1,0,0,1-.4.34A1.28,1.28,0,0,1,40.07,21.65ZM40,19.52a.47.47,0,0,0-.37.16.89.89,0,0,0-.18.45h1.07v-.05a.8.8,0,0,0-.15-.42A.5.5,0,0,0,40,19.52Z" fill="#ffc50f"/><path d="M42,19.12v.28a.92.92,0,0,1,.73-.33c.51,0,.78.3.79.89V21.6H43V20a.56.56,0,0,0-.1-.35.42.42,0,0,0-.34-.11.54.54,0,0,0-.5.3V21.6h-.56V19.12Z" fill="#ffc50f"/><path d="M45.2,20.4H44V20H45.2Z" fill="#ffc50f"/><path d="M47.05,20.92a.25.25,0,0,0-.12-.22,1.47,1.47,0,0,0-.41-.14,2.27,2.27,0,0,1-.48-.15.64.64,0,0,1-.14-1.12,1,1,0,0,1,.69-.22,1.12,1.12,0,0,1,.72.22.71.71,0,0,1,.27.57H47a.36.36,0,0,0-.12-.27.45.45,0,0,0-.31-.1.51.51,0,0,0-.3.08.27.27,0,0,0-.12.23.23.23,0,0,0,.11.2,1.24,1.24,0,0,0,.43.14,2.07,2.07,0,0,1,.52.18.67.67,0,0,1,.28.24.59.59,0,0,1,.09.34.64.64,0,0,1-.28.54,1.17,1.17,0,0,1-.73.21,1.33,1.33,0,0,1-.54-.11,1,1,0,0,1-.37-.31.7.7,0,0,1-.14-.41h.55a.36.36,0,0,0,.14.3.62.62,0,0,0,.37.11.5.5,0,0,0,.33-.09A.25.25,0,0,0,47.05,20.92Z" fill="#ffc50f"/><path d="M48,20.33a1.51,1.51,0,0,1,.14-.65,1.06,1.06,0,0,1,.41-.45,1.21,1.21,0,0,1,1.42.16,1.31,1.31,0,0,1,.34.86v.13a1.53,1.53,0,0,1-.14.66,1.11,1.11,0,0,1-.41.45,1.17,1.17,0,0,1-.6.16,1.11,1.11,0,0,1-.85-.35,1.37,1.37,0,0,1-.31-.94Zm.56.05a1,1,0,0,0,.16.6.5.5,0,0,0,.44.22.52.52,0,0,0,.44-.22,1.16,1.16,0,0,0,.15-.65.94.94,0,0,0-.16-.59.55.55,0,0,0-.87,0A1.1,1.1,0,0,0,48.54,20.38Z" fill="#ffc50f"/><path d="M52.27,21.36a.89.89,0,0,1-.7.29.75.75,0,0,1-.61-.24,1,1,0,0,1-.21-.68V19.12h.56v1.6c0,.31.13.47.39.47a.56.56,0,0,0,.55-.29V19.12h.55V21.6h-.52Z" fill="#ffc50f"/><path d="M54.67,19.63a.82.82,0,0,0-.22,0,.51.51,0,0,0-.52.29v1.7h-.56V19.12h.53l0,.27a.63.63,0,0,1,.56-.32.6.6,0,0,1,.2,0Z" fill="#ffc50f"/><path d="M56,21.2a.51.51,0,0,0,.35-.12.44.44,0,0,0,.15-.3H57a.76.76,0,0,1-.14.43,1.06,1.06,0,0,1-.87.44,1.09,1.09,0,0,1-.83-.34,1.37,1.37,0,0,1-.3-.93v-.06a1.33,1.33,0,0,1,.3-.91,1.16,1.16,0,0,1,1.55-.08A.91.91,0,0,1,57,20H56.5a.56.56,0,0,0-.15-.36.48.48,0,0,0-.35-.13.47.47,0,0,0-.41.19,1,1,0,0,0-.15.6v.09a1,1,0,0,0,.14.6A.5.5,0,0,0,56,21.2Z" fill="#ffc50f"/><path d="M58.54,21.65a1.16,1.16,0,0,1-.86-.34,1.21,1.21,0,0,1-.33-.89v-.07a1.56,1.56,0,0,1,.14-.66,1.13,1.13,0,0,1,.4-.46,1.08,1.08,0,0,1,.58-.16,1,1,0,0,1,.79.32,1.42,1.42,0,0,1,.27.92v.22H57.91a.77.77,0,0,0,.21.49.61.61,0,0,0,.45.18.73.73,0,0,0,.62-.31l.31.29a1,1,0,0,1-.4.34A1.32,1.32,0,0,1,58.54,21.65Zm-.07-2.13a.46.46,0,0,0-.37.16.89.89,0,0,0-.18.45H59v-.05a.66.66,0,0,0-.15-.42A.46.46,0,0,0,58.47,19.52Z" fill="#ffc50f"/><path d="M61.84,18.51v.61h.44v.41h-.44v1.39a.34.34,0,0,0,0,.2.28.28,0,0,0,.2.06.68.68,0,0,0,.2,0v.43a1.24,1.24,0,0,1-.37.06c-.43,0-.64-.24-.64-.71V19.53h-.41v-.41h.41v-.61Z" fill="#ffc50f"/><path d="M62.53,20.33a1.51,1.51,0,0,1,.14-.65,1,1,0,0,1,.41-.45,1.08,1.08,0,0,1,.6-.16,1.11,1.11,0,0,1,.82.32,1.25,1.25,0,0,1,.33.86v.13a1.53,1.53,0,0,1-.14.66,1.11,1.11,0,0,1-.41.45,1.2,1.2,0,0,1-.61.16,1.09,1.09,0,0,1-.84-.35,1.37,1.37,0,0,1-.31-.94Zm.56.05a1,1,0,0,0,.15.6.52.52,0,0,0,.44.22.5.5,0,0,0,.44-.22,1.08,1.08,0,0,0,.16-.65.94.94,0,0,0-.16-.59.55.55,0,0,0-.87,0A1.1,1.1,0,0,0,63.09,20.38Z" fill="#ffc50f"/><path d="M65.2,20.33a1.38,1.38,0,0,1,.15-.65,1,1,0,0,1,.41-.45,1.08,1.08,0,0,1,.6-.16,1.1,1.1,0,0,1,.81.32,1.31,1.31,0,0,1,.34.86v.13a1.39,1.39,0,0,1-.14.66,1.09,1.09,0,0,1-.4.45,1.23,1.23,0,0,1-.61.16,1.09,1.09,0,0,1-.84-.35,1.37,1.37,0,0,1-.32-.94Zm.56.05a1,1,0,0,0,.16.6.51.51,0,0,0,.44.22A.5.5,0,0,0,66.8,21a1.08,1.08,0,0,0,.16-.65,1,1,0,0,0-.16-.59.56.56,0,0,0-.88,0A1.17,1.17,0,0,0,65.76,20.38Z" fill="#ffc50f"/><path d="M68.58,21.6H68V18.07h.56Z" fill="#ffc50f"/><path d="M70.58,20.92a.25.25,0,0,0-.12-.22,1.47,1.47,0,0,0-.41-.14,2.27,2.27,0,0,1-.48-.15.63.63,0,0,1-.41-.59.65.65,0,0,1,.27-.53,1,1,0,0,1,.69-.22,1.08,1.08,0,0,1,.71.22.69.69,0,0,1,.28.57h-.56a.36.36,0,0,0-.12-.27.45.45,0,0,0-.31-.1.51.51,0,0,0-.3.08.27.27,0,0,0-.12.23.23.23,0,0,0,.11.2,1.16,1.16,0,0,0,.43.14,2.07,2.07,0,0,1,.52.18.67.67,0,0,1,.28.24.59.59,0,0,1,.09.34.66.66,0,0,1-.28.54,1.19,1.19,0,0,1-.73.21,1.33,1.33,0,0,1-.54-.11.88.88,0,0,1-.37-.31.7.7,0,0,1-.14-.41h.54a.4.4,0,0,0,.15.3.62.62,0,0,0,.37.11.5.5,0,0,0,.33-.09A.25.25,0,0,0,70.58,20.92Z" fill="#ffc50f"/><path d="M73,21.6V19.53H72.6v-.41H73v-.23a.86.86,0,0,1,.23-.64.88.88,0,0,1,.64-.23,1.25,1.25,0,0,1,.32.05l0,.43-.21,0c-.27,0-.4.14-.4.42v.22H74v.41h-.5V21.6Z" fill="#ffc50f"/><path d="M74.35,20.33a1.38,1.38,0,0,1,.14-.65,1,1,0,0,1,.41-.45,1.08,1.08,0,0,1,.6-.16,1.12,1.12,0,0,1,.82.32,1.3,1.3,0,0,1,.33.86v.13a1.4,1.4,0,0,1-.15.66,1,1,0,0,1-.4.45,1.2,1.2,0,0,1-.61.16,1.09,1.09,0,0,1-.84-.35,1.37,1.37,0,0,1-.31-.94Zm.55.05a1,1,0,0,0,.16.6.52.52,0,0,0,.44.22.5.5,0,0,0,.44-.22,1.08,1.08,0,0,0,.16-.65.94.94,0,0,0-.16-.59.52.52,0,0,0-.44-.22.54.54,0,0,0-.44.21A1.17,1.17,0,0,0,74.9,20.38Z" fill="#ffc50f"/><path d="M78.43,19.63a.9.9,0,0,0-.23,0,.51.51,0,0,0-.52.29v1.7h-.55V19.12h.53v.27a.64.64,0,0,1,.56-.32.56.56,0,0,1,.2,0Z" fill="#ffc50f"/><path d="M82.57,21.17a1.16,1.16,0,0,1-.5.35,2.11,2.11,0,0,1-.73.13,1.55,1.55,0,0,1-.75-.19,1.34,1.34,0,0,1-.5-.55,2,2,0,0,1-.18-.83v-.26a1.77,1.77,0,0,1,.36-1.18,1.24,1.24,0,0,1,1-.43,1.3,1.3,0,0,1,.89.28,1.21,1.21,0,0,1,.4.79H82a.64.64,0,0,0-.7-.6.7.7,0,0,0-.6.28,1.53,1.53,0,0,0-.21.83V20a1.38,1.38,0,0,0,.23.84.75.75,0,0,0,.64.3A.86.86,0,0,0,82,21v-.65H81.3v-.45h1.27Z" fill="#ffc50f"/><path d="M85.76,20.51a1.24,1.24,0,0,1-.4.84,1.33,1.33,0,0,1-.91.3,1.37,1.37,0,0,1-.71-.19,1.3,1.3,0,0,1-.47-.54,2,2,0,0,1-.17-.81V19.8a2,2,0,0,1,.17-.84,1.23,1.23,0,0,1,.48-.55,1.34,1.34,0,0,1,.72-.2,1.28,1.28,0,0,1,.89.3,1.25,1.25,0,0,1,.4.85h-.58a.86.86,0,0,0-.21-.52.68.68,0,0,0-.5-.16.67.67,0,0,0-.58.28,1.45,1.45,0,0,0-.21.81v.29a1.45,1.45,0,0,0,.2.83.65.65,0,0,0,.57.29A.71.71,0,0,0,85,21a.81.81,0,0,0,.22-.51Z" fill="#ffc50f"/><path d="M86.86,20.36V21.6h-.58V18.26h1.27a1.26,1.26,0,0,1,.89.29,1,1,0,0,1,.33.77,1,1,0,0,1-.32.77,1.36,1.36,0,0,1-.9.27Zm0-.47h.69a.74.74,0,0,0,.48-.14.54.54,0,0,0,.16-.42.55.55,0,0,0-.17-.44.61.61,0,0,0-.45-.16h-.71Z" fill="#ffc50f"/><path d="M91.79,20.92a.25.25,0,0,0-.12-.22,1.47,1.47,0,0,0-.41-.14,2.27,2.27,0,0,1-.48-.15.64.64,0,0,1-.14-1.12,1,1,0,0,1,.69-.22,1.12,1.12,0,0,1,.72.22.71.71,0,0,1,.27.57h-.56a.36.36,0,0,0-.12-.27.45.45,0,0,0-.31-.1.51.51,0,0,0-.3.08.27.27,0,0,0-.12.23A.23.23,0,0,0,91,20a1.24,1.24,0,0,0,.43.14,1.94,1.94,0,0,1,.52.18.67.67,0,0,1,.28.24.59.59,0,0,1,.09.34.64.64,0,0,1-.28.54,1.17,1.17,0,0,1-.73.21,1.33,1.33,0,0,1-.54-.11,1,1,0,0,1-.37-.31.7.7,0,0,1-.14-.41h.55a.36.36,0,0,0,.14.3.62.62,0,0,0,.37.11.5.5,0,0,0,.33-.09A.25.25,0,0,0,91.79,20.92Z" fill="#ffc50f"/><path d="M93.92,21.65a1.16,1.16,0,0,1-.86-.34,1.21,1.21,0,0,1-.33-.89v-.07a1.56,1.56,0,0,1,.14-.66,1.13,1.13,0,0,1,.4-.46,1.08,1.08,0,0,1,.58-.16,1,1,0,0,1,.79.32,1.42,1.42,0,0,1,.27.92v.22H93.29a.77.77,0,0,0,.21.49.61.61,0,0,0,.45.18.74.74,0,0,0,.62-.31l.31.29a1,1,0,0,1-.4.34A1.32,1.32,0,0,1,93.92,21.65Zm-.07-2.13a.46.46,0,0,0-.37.16.89.89,0,0,0-.18.45h1.06v-.05a.66.66,0,0,0-.15-.42A.46.46,0,0,0,93.85,19.52Z" fill="#ffc50f"/><path d="M96.37,21.2a.49.49,0,0,0,.34-.12.4.4,0,0,0,.15-.3h.53a.86.86,0,0,1-.15.43,1,1,0,0,1-.37.32,1.06,1.06,0,0,1-.5.12,1.07,1.07,0,0,1-.82-.34,1.32,1.32,0,0,1-.31-.93v-.06a1.29,1.29,0,0,1,.31-.91,1,1,0,0,1,.82-.34,1,1,0,0,1,.72.26.92.92,0,0,1,.3.68h-.53a.55.55,0,0,0-.14-.36.55.55,0,0,0-.77.06,1,1,0,0,0-.15.6v.09A1,1,0,0,0,96,21,.48.48,0,0,0,96.37,21.2Z" fill="#ffc50f"/><path d="M99.31,21.36a.85.85,0,0,1-.69.29.78.78,0,0,1-.62-.24,1.06,1.06,0,0,1-.2-.68V19.12h.55v1.6c0,.31.13.47.4.47a.56.56,0,0,0,.55-.29V19.12h.55V21.6h-.52Z" fill="#ffc50f"/><path d="M101.72,19.63a.86.86,0,0,0-.23,0,.5.5,0,0,0-.51.29v1.7h-.56V19.12H101l0,.27a.63.63,0,0,1,.56-.32.5.5,0,0,1,.19,0Z" fill="#ffc50f"/><path d="M102.08,18.47a.26.26,0,0,1,.08-.21.34.34,0,0,1,.46,0,.29.29,0,0,1,0,.42.37.37,0,0,1-.46,0A.26.26,0,0,1,102.08,18.47Zm.59,3.13h-.56V19.12h.56Z" fill="#ffc50f"/><path d="M104,18.51v.61h.44v.41H104v1.39a.28.28,0,0,0,.06.2.27.27,0,0,0,.2.06.68.68,0,0,0,.2,0v.43a1.24,1.24,0,0,1-.37.06c-.43,0-.64-.24-.64-.71V19.53H103v-.41h.41v-.61Z" fill="#ffc50f"/><path d="M105.71,20.8l.5-1.68h.6l-1,2.86a.8.8,0,0,1-.77.62.93.93,0,0,1-.27,0v-.43h.11a.52.52,0,0,0,.31-.08.51.51,0,0,0,.17-.26l.08-.21-.87-2.47h.6Z" fill="#ffc50f"/></svg>