<svg xmlns="http://www.w3.org/2000/svg" width="80.33" height="49.67" viewBox="0 0 80.33 49.67"><title>blue-horizontal-logo-lockup</title><rect width="80.33" height="49.67" fill="#1976d2"/><path d="M8.22,37.52H4.9v3.4H2.85V32.39h5.7V34H4.9v2H8.22Z" fill="#fff"/><path d="M21.13,36.83A5,5,0,0,1,20.67,39a3.5,3.5,0,0,1-1.31,1.48,3.95,3.95,0,0,1-3.88,0,3.54,3.54,0,0,1-1.32-1.44A5,5,0,0,1,13.67,37v-.49a5,5,0,0,1,.46-2.21,3.46,3.46,0,0,1,1.32-1.48,3.74,3.74,0,0,1,1.95-.52,3.64,3.64,0,0,1,1.94.52,3.5,3.5,0,0,1,1.32,1.47,4.89,4.89,0,0,1,.47,2.18ZM19,36.47a3.64,3.64,0,0,0-.42-1.93,1.37,1.37,0,0,0-1.22-.66c-1,0-1.57.78-1.63,2.32v.63a3.66,3.66,0,0,0,.42,1.93,1.44,1.44,0,0,0,2.43,0,3.47,3.47,0,0,0,.43-1.9Z" fill="#fff"/><path d="M29.86,37.9H28.75v3H26.69V32.39h3.36a3.76,3.76,0,0,1,2.38.67,2.27,2.27,0,0,1,.85,1.9,2.77,2.77,0,0,1-.36,1.48,2.56,2.56,0,0,1-1.13,1l1.78,3.44v.09h-2.2Zm-1.11-1.58h1.3a1.14,1.14,0,0,0,.88-.31,1.38,1.38,0,0,0,0-1.72,1.16,1.16,0,0,0-.88-.32h-1.3Z" fill="#fff"/><path d="M43.42,38.65a.82.82,0,0,0-.32-.7A3.81,3.81,0,0,0,42,37.43a12.74,12.74,0,0,1-1.31-.52A2.49,2.49,0,0,1,39,34.67a2,2,0,0,1,.41-1.25,2.74,2.74,0,0,1,1.17-.85,4.6,4.6,0,0,1,1.7-.3,3.92,3.92,0,0,1,1.65.33,2.64,2.64,0,0,1,1.14.93,2.46,2.46,0,0,1,.4,1.39h-2a1,1,0,0,0-.32-.81,1.24,1.24,0,0,0-.86-.29,1.41,1.41,0,0,0-.87.25.73.73,0,0,0-.32.62.74.74,0,0,0,.35.59,4.27,4.27,0,0,0,1.23.55,7.65,7.65,0,0,1,1.46.61,2.45,2.45,0,0,1,1.38,2.2,2.09,2.09,0,0,1-.84,1.76,3.83,3.83,0,0,1-2.32.64,4.74,4.74,0,0,1-1.88-.37,2.82,2.82,0,0,1-1.26-1,2.72,2.72,0,0,1-.43-1.5h2.07a1.32,1.32,0,0,0,.35,1,1.72,1.72,0,0,0,1.15.32,1.32,1.32,0,0,0,.81-.22A.74.74,0,0,0,43.42,38.65Z" fill="#fff"/><path d="M56.33,37.3H53.09v2h3.82v1.58H51V32.39h5.89V34H53.09v1.8h3.24Z" fill="#fff"/><path d="M69.06,34H66.5v6.94h-2V34H61.93V32.39h7.13Z" fill="#fff"/><path d="M76.62,40.92H74.57V32.39h2.05Z" fill="#fff"/><path d="M50.73,11.37a18.41,18.41,0,0,0-.11-5c-6.86-5.25-15.41-5.29-22,0a20,20,0,0,0,0,4.95A14.89,14.89,0,0,1,39.67,6.88a14.92,14.92,0,0,1,11.06,4.49" fill="#ffc400" fill-rule="evenodd"/><path d="M49.05,17a16.56,16.56,0,0,0,1.28-3.42A13.62,13.62,0,0,0,39.67,8.8,13.62,13.62,0,0,0,29,13.56c1.18,5.63,5.32,9.82,10.63,11.87a23.15,23.15,0,0,0,2.29-1.12c-5.3-2.12-9-6.57-9.51-9.43a9.33,9.33,0,0,1,7.25-2.77A11.94,11.94,0,0,1,49.05,17" fill="#fff" fill-rule="evenodd"/><path d="M5.62,44.74a2.14,2.14,0,0,1-.17.87,1.34,1.34,0,0,1-.48.57,1.4,1.4,0,0,1-.73.19,1.4,1.4,0,0,1-.73-.19A1.44,1.44,0,0,1,3,45.61a2.08,2.08,0,0,1-.17-.85v-.19A2.13,2.13,0,0,1,3,43.71a1.31,1.31,0,0,1,.49-.57,1.34,1.34,0,0,1,.72-.2,1.3,1.3,0,0,1,1.22.76,2.09,2.09,0,0,1,.17.86ZM5,44.57a1.46,1.46,0,0,0-.21-.85.69.69,0,0,0-.6-.3.67.67,0,0,0-.58.3,1.32,1.32,0,0,0-.22.83v.19a1.5,1.5,0,0,0,.21.86.7.7,0,0,0,.6.3.67.67,0,0,0,.59-.3A1.45,1.45,0,0,0,5,44.74Z" fill="#ffc400"/><path d="M8.32,45.11a1.5,1.5,0,0,1-.26.92.84.84,0,0,1-.7.34.85.85,0,0,1-.66-.27v1.18H6.14V43.84h.52l0,.26a.9.9,0,0,1,1.38,0,1.52,1.52,0,0,1,.26.94Zm-.56,0a1.05,1.05,0,0,0-.14-.59.5.5,0,0,0-.43-.22.51.51,0,0,0-.49.29v1.1a.53.53,0,0,0,.5.29.46.46,0,0,0,.41-.22A1.13,1.13,0,0,0,7.76,45.06Z" fill="#ffc400"/><path d="M9.89,46.37A1.15,1.15,0,0,1,9,46a1.21,1.21,0,0,1-.33-.89v-.07a1.39,1.39,0,0,1,.14-.66,1.13,1.13,0,0,1,.4-.46,1.08,1.08,0,0,1,.58-.16,1,1,0,0,1,.79.32,1.4,1.4,0,0,1,.27.92v.22H9.26a.76.76,0,0,0,.2.49.65.65,0,0,0,.46.18.74.74,0,0,0,.62-.31l.3.29a1.07,1.07,0,0,1-.39.34A1.31,1.31,0,0,1,9.89,46.37Zm-.07-2.12a.46.46,0,0,0-.37.16.71.71,0,0,0-.18.44h1.06v0a.64.64,0,0,0-.15-.42A.44.44,0,0,0,9.82,44.25Z" fill="#ffc400"/><path d="M11.83,43.84l0,.29a.88.88,0,0,1,.72-.33c.52,0,.78.29.79.89v1.64H12.8V44.72a.49.49,0,0,0-.1-.35.42.42,0,0,0-.33-.12.54.54,0,0,0-.5.31v1.77h-.56V43.84Z" fill="#ffc400"/><path d="M15,45.13h-1.2v-.45H15Z" fill="#ffc400"/><path d="M16.87,45.65a.25.25,0,0,0-.13-.22,1.14,1.14,0,0,0-.4-.14,2.27,2.27,0,0,1-.48-.15.64.64,0,0,1-.42-.59.68.68,0,0,1,.27-.54,1.26,1.26,0,0,1,1.41,0,.72.72,0,0,1,.28.57h-.56a.34.34,0,0,0-.12-.27.47.47,0,0,0-.32-.1.48.48,0,0,0-.3.08.26.26,0,0,0-.11.23.23.23,0,0,0,.1.2,1.6,1.6,0,0,0,.44.14,2.64,2.64,0,0,1,.52.17.8.8,0,0,1,.27.24.64.64,0,0,1,.09.34.66.66,0,0,1-.27.55,1.26,1.26,0,0,1-.73.2,1.23,1.23,0,0,1-.55-.11.91.91,0,0,1-.37-.3.71.71,0,0,1-.13-.41h.54a.4.4,0,0,0,.15.3.58.58,0,0,0,.37.11.54.54,0,0,0,.33-.09A.25.25,0,0,0,16.87,45.65Z" fill="#ffc400"/><path d="M17.8,45.06a1.38,1.38,0,0,1,.14-.65,1,1,0,0,1,.41-.45,1.08,1.08,0,0,1,.6-.16,1.1,1.1,0,0,1,.81.32,1.24,1.24,0,0,1,.34.86v.13a1.42,1.42,0,0,1-.14.66,1.09,1.09,0,0,1-.4.45,1.23,1.23,0,0,1-.61.15,1.05,1.05,0,0,1-.84-.35,1.32,1.32,0,0,1-.31-.93Zm.55,0a1,1,0,0,0,.16.6.51.51,0,0,0,.44.22.5.5,0,0,0,.44-.22,1.08,1.08,0,0,0,.16-.65.94.94,0,0,0-.16-.59.52.52,0,0,0-.44-.22.54.54,0,0,0-.44.21A1.15,1.15,0,0,0,18.35,45.11Z" fill="#ffc400"/><path d="M22.08,46.08a.85.85,0,0,1-.7.29.79.79,0,0,1-.61-.23,1,1,0,0,1-.21-.69V43.84h.56v1.61c0,.31.13.47.39.47a.55.55,0,0,0,.55-.29V43.84h.56v2.49H22.1Z" fill="#ffc400"/><path d="M24.49,44.35h-.23a.49.49,0,0,0-.51.29v1.7h-.56V43.84h.53v.28a.65.65,0,0,1,.56-.32.56.56,0,0,1,.2,0Z" fill="#ffc400"/><path d="M25.82,45.93a.53.53,0,0,0,.35-.12.39.39,0,0,0,.14-.3h.53a.89.89,0,0,1-.15.43,1,1,0,0,1-.36.32,1.25,1.25,0,0,1-.5.11A1.07,1.07,0,0,1,25,46a1.38,1.38,0,0,1-.31-.94v-.05a1.34,1.34,0,0,1,.31-.91,1,1,0,0,1,.82-.34,1,1,0,0,1,.73.26.93.93,0,0,1,.29.68h-.53a.49.49,0,0,0-.14-.36.48.48,0,0,0-.35-.13.5.5,0,0,0-.42.19,1,1,0,0,0-.15.6v.09a1,1,0,0,0,.15.6A.5.5,0,0,0,25.82,45.93Z" fill="#ffc400"/><path d="M28.35,46.37a1.17,1.17,0,0,1-.86-.33,1.21,1.21,0,0,1-.33-.89v-.07a1.4,1.4,0,0,1,.15-.66,1,1,0,0,1,1-.62,1,1,0,0,1,.78.32,1.35,1.35,0,0,1,.28.92v.22H27.73a.71.71,0,0,0,.2.49.62.62,0,0,0,.46.18.74.74,0,0,0,.62-.31l.3.29a1,1,0,0,1-.4.34A1.25,1.25,0,0,1,28.35,46.37Zm-.06-2.12a.44.44,0,0,0-.37.16.71.71,0,0,0-.18.44H28.8v0a.64.64,0,0,0-.15-.42A.45.45,0,0,0,28.29,44.25Z" fill="#ffc400"/><path d="M31.65,43.24v.6h.44v.42h-.44v1.38a.29.29,0,0,0,.06.21.27.27,0,0,0,.2.06l.2,0v.43a1.22,1.22,0,0,1-.37,0c-.43,0-.65-.23-.65-.71v-1.4h-.4v-.42h.4v-.6Z" fill="#ffc400"/><path d="M32.34,45.06a1.38,1.38,0,0,1,.15-.65,1,1,0,0,1,.4-.45,1.13,1.13,0,0,1,.61-.16,1.1,1.1,0,0,1,.81.32,1.29,1.29,0,0,1,.34.86v.13a1.42,1.42,0,0,1-.14.66,1.09,1.09,0,0,1-.4.45,1.23,1.23,0,0,1-.61.15,1.05,1.05,0,0,1-.84-.35,1.33,1.33,0,0,1-.32-.93Zm.56,0a1,1,0,0,0,.16.6.51.51,0,0,0,.44.22.5.5,0,0,0,.44-.22,1.08,1.08,0,0,0,.16-.65,1,1,0,0,0-.16-.59.56.56,0,0,0-.88,0A1.15,1.15,0,0,0,32.9,45.11Z" fill="#ffc400"/><path d="M35,45.06a1.51,1.51,0,0,1,.14-.65,1.06,1.06,0,0,1,.41-.45,1.12,1.12,0,0,1,.6-.16,1.11,1.11,0,0,1,.82.32,1.29,1.29,0,0,1,.34.86v.13a1.56,1.56,0,0,1-.14.66,1.11,1.11,0,0,1-.41.45,1.16,1.16,0,0,1-.6.15,1.05,1.05,0,0,1-.84-.35,1.33,1.33,0,0,1-.32-.93Zm.56,0a1,1,0,0,0,.16.6.5.5,0,0,0,.44.22.51.51,0,0,0,.44-.22,1.16,1.16,0,0,0,.15-.65.94.94,0,0,0-.16-.59.51.51,0,0,0-.44-.22.52.52,0,0,0-.43.21A1.08,1.08,0,0,0,35.58,45.11Z" fill="#ffc400"/><path d="M38.4,46.33h-.56V42.8h.56Z" fill="#ffc400"/><path d="M40.39,45.65a.24.24,0,0,0-.12-.22,1.13,1.13,0,0,0-.41-.14,2.17,2.17,0,0,1-.47-.15.64.64,0,0,1-.42-.59.68.68,0,0,1,.27-.54,1.26,1.26,0,0,1,1.41,0,.71.71,0,0,1,.27.57h-.55a.34.34,0,0,0-.12-.27.47.47,0,0,0-.32-.1.48.48,0,0,0-.3.08.26.26,0,0,0-.11.23.23.23,0,0,0,.1.2,1.6,1.6,0,0,0,.44.14,2.31,2.31,0,0,1,.51.17.75.75,0,0,1,.28.24.64.64,0,0,1,.09.34.66.66,0,0,1-.27.55,1.26,1.26,0,0,1-.73.2,1.2,1.2,0,0,1-.55-.11A.85.85,0,0,1,39,46a.71.71,0,0,1-.13-.41h.54a.4.4,0,0,0,.15.3.57.57,0,0,0,.36.11.55.55,0,0,0,.34-.09A.24.24,0,0,0,40.39,45.65Z" fill="#ffc400"/><path d="M42.8,46.33V44.26h-.38v-.42h.38v-.22A.82.82,0,0,1,43,43a.86.86,0,0,1,.64-.23,1.18,1.18,0,0,1,.31,0v.43l-.22,0a.36.36,0,0,0-.4.41v.22h.51v.42h-.51v2.07Z" fill="#ffc400"/><path d="M44.16,45.06a1.38,1.38,0,0,1,.15-.65,1,1,0,0,1,.4-.45,1.12,1.12,0,0,1,.6-.16,1.11,1.11,0,0,1,.82.32,1.29,1.29,0,0,1,.34.86v.13a1.56,1.56,0,0,1-.14.66,1.09,1.09,0,0,1-.4.45,1.23,1.23,0,0,1-.61.15,1.05,1.05,0,0,1-.84-.35,1.33,1.33,0,0,1-.32-.93Zm.56,0a1,1,0,0,0,.16.6.5.5,0,0,0,.44.22.51.51,0,0,0,.44-.22,1.15,1.15,0,0,0,.16-.65.94.94,0,0,0-.17-.59.5.5,0,0,0-.44-.22.52.52,0,0,0-.43.21A1.08,1.08,0,0,0,44.72,45.11Z" fill="#ffc400"/><path d="M48.24,44.35H48a.51.51,0,0,0-.52.29v1.7h-.56V43.84h.53l0,.28a.63.63,0,0,1,.56-.32.6.6,0,0,1,.2,0Z" fill="#ffc400"/><path d="M52.38,45.89a1,1,0,0,1-.5.36,2.07,2.07,0,0,1-.73.12,1.38,1.38,0,0,1-.74-.19,1.19,1.19,0,0,1-.5-.54,1.81,1.81,0,0,1-.18-.83v-.26a1.75,1.75,0,0,1,.36-1.18,1.24,1.24,0,0,1,1-.43,1.32,1.32,0,0,1,.89.28,1.15,1.15,0,0,1,.39.79h-.57a.64.64,0,0,0-.7-.6.67.67,0,0,0-.59.28,1.36,1.36,0,0,0-.21.82v.26a1.38,1.38,0,0,0,.23.84.74.74,0,0,0,.63.3.88.88,0,0,0,.64-.2v-.66h-.69v-.44h1.26Z" fill="#ffc400"/><path d="M55.57,45.24a1.15,1.15,0,0,1-.39.83,1.36,1.36,0,0,1-.92.3,1.27,1.27,0,0,1-.7-.19,1.22,1.22,0,0,1-.47-.53,1.92,1.92,0,0,1-.17-.81v-.32a2,2,0,0,1,.16-.83,1.34,1.34,0,0,1,.49-.56,1.31,1.31,0,0,1,.72-.19,1.28,1.28,0,0,1,.89.3,1.2,1.2,0,0,1,.39.85H55a.74.74,0,0,0-.21-.52.66.66,0,0,0-.49-.16.68.68,0,0,0-.58.27,1.36,1.36,0,0,0-.21.82v.29a1.48,1.48,0,0,0,.19.83.65.65,0,0,0,.57.29.79.79,0,0,0,.52-.16.81.81,0,0,0,.21-.51Z" fill="#ffc400"/><path d="M56.67,45.09v1.24h-.58V43h1.28a1.28,1.28,0,0,1,.89.3,1,1,0,0,1,.33.77,1,1,0,0,1-.32.76,1.34,1.34,0,0,1-.91.28Zm0-.47h.7a.66.66,0,0,0,.47-.15.51.51,0,0,0,.17-.42.58.58,0,0,0-.17-.43.65.65,0,0,0-.45-.17h-.72Z" fill="#ffc400"/><path d="M61.61,45.65a.25.25,0,0,0-.13-.22,1.14,1.14,0,0,0-.4-.14,2.27,2.27,0,0,1-.48-.15.64.64,0,0,1-.42-.59.68.68,0,0,1,.27-.54,1.26,1.26,0,0,1,1.41,0,.72.72,0,0,1,.28.57h-.56a.34.34,0,0,0-.12-.27.47.47,0,0,0-.32-.1.48.48,0,0,0-.3.08.26.26,0,0,0-.11.23.23.23,0,0,0,.1.2,1.6,1.6,0,0,0,.44.14,2.64,2.64,0,0,1,.52.17.8.8,0,0,1,.27.24.64.64,0,0,1,.09.34.66.66,0,0,1-.27.55,1.26,1.26,0,0,1-.73.2,1.23,1.23,0,0,1-.55-.11.91.91,0,0,1-.37-.3.71.71,0,0,1-.13-.41h.54a.4.4,0,0,0,.15.3.58.58,0,0,0,.37.11.54.54,0,0,0,.33-.09A.25.25,0,0,0,61.61,45.65Z" fill="#ffc400"/><path d="M63.73,46.37a1.17,1.17,0,0,1-.86-.33,1.21,1.21,0,0,1-.33-.89v-.07a1.4,1.4,0,0,1,.15-.66,1,1,0,0,1,1-.62,1,1,0,0,1,.78.32,1.35,1.35,0,0,1,.28.92v.22H63.11a.71.71,0,0,0,.2.49.62.62,0,0,0,.46.18.74.74,0,0,0,.62-.31l.3.29a1,1,0,0,1-.4.34A1.25,1.25,0,0,1,63.73,46.37Zm-.06-2.12a.44.44,0,0,0-.37.16.71.71,0,0,0-.18.44h1.06v0a.64.64,0,0,0-.15-.42A.45.45,0,0,0,63.67,44.25Z" fill="#ffc400"/><path d="M66.18,45.93a.51.51,0,0,0,.35-.12.44.44,0,0,0,.15-.3h.52a.78.78,0,0,1-.14.43,1,1,0,0,1-.37.32,1.18,1.18,0,0,1-.5.11,1.08,1.08,0,0,1-.83-.33,1.38,1.38,0,0,1-.3-.94v-.05a1.33,1.33,0,0,1,.3-.91,1,1,0,0,1,.83-.34,1,1,0,0,1,.72.26.9.9,0,0,1,.29.68h-.52a.54.54,0,0,0-.15-.36.48.48,0,0,0-.35-.13.47.47,0,0,0-.41.19,1,1,0,0,0-.15.6v.09a1,1,0,0,0,.14.6A.5.5,0,0,0,66.18,45.93Z" fill="#ffc400"/><path d="M69.13,46.08a.85.85,0,0,1-.7.29.79.79,0,0,1-.61-.23,1,1,0,0,1-.21-.69V43.84h.56v1.61c0,.31.13.47.39.47a.56.56,0,0,0,.55-.29V43.84h.56v2.49h-.53Z" fill="#ffc400"/><path d="M71.54,44.35h-.23a.51.51,0,0,0-.52.29v1.7h-.55V43.84h.53v.28a.64.64,0,0,1,.56-.32.56.56,0,0,1,.2,0Z" fill="#ffc400"/><path d="M71.89,43.2A.33.33,0,0,1,72,43a.36.36,0,0,1,.24-.08.32.32,0,0,1,.23.08.33.33,0,0,1,.08.22.32.32,0,0,1-.08.21.28.28,0,0,1-.23.08.32.32,0,0,1-.24-.08A.32.32,0,0,1,71.89,43.2Zm.59,3.13h-.55V43.84h.55Z" fill="#ffc400"/><path d="M73.79,43.24v.6h.44v.42h-.44v1.38a.29.29,0,0,0,.06.21.25.25,0,0,0,.2.06l.19,0v.43a1.18,1.18,0,0,1-.37,0c-.42,0-.64-.23-.64-.71v-1.4h-.41v-.42h.41v-.6Z" fill="#ffc400"/><path d="M75.52,45.53,76,43.84h.59l-1,2.86a.81.81,0,0,1-.78.63.82.82,0,0,1-.26,0v-.43h.1a.56.56,0,0,0,.32-.07.51.51,0,0,0,.17-.26l.08-.22-.87-2.47H75Z" fill="#ffc400"/></svg>