<svg xmlns="http://www.w3.org/2000/svg" width="50.17" height="51.52" viewBox="0 0 50.17 51.52"><title>greyed-logo</title><path d="M49.91,20a41.24,41.24,0,0,0-.26-11.12C34.27-2.92,15.08-3,.4,8.88A44.77,44.77,0,0,0,.29,20c5.53-6.08,14.57-10,24.79-10s19.31,4,24.83,10.08" fill="silver" fill-rule="evenodd"/><path d="M46.13,32.59A36.55,36.55,0,0,0,49,24.93c-5.15-6.44-13.93-10.69-23.92-10.69S6.33,18.47,1.18,24.91C3.82,37.54,13.11,46.94,25,51.52A46.14,46.14,0,0,0,30.16,49C18.27,44.26,9.9,34.27,8.84,27.88c4.51-4.17,8.46-6.22,16.25-6.22s16.57,4.35,21,10.93" fill="#646464" fill-rule="evenodd"/></svg>