<svg xmlns="http://www.w3.org/2000/svg" width="81.71" height="51.84" viewBox="0 0 81.71 51.84"><title>white-horizontal-logo-lockup</title><rect width="81.71" height="51.84" fill="#fff"/><path d="M9.41,39.11H6.09v3.4H4V34H9.75v1.59H6.09v2H9.41Z" fill="#1976d2"/><path d="M22.33,38.42a5,5,0,0,1-.47,2.21,3.44,3.44,0,0,1-1.31,1.48,3.74,3.74,0,0,1-1.95.52,3.66,3.66,0,0,1-1.93-.51,3.37,3.37,0,0,1-1.31-1.43,4.86,4.86,0,0,1-.5-2.14v-.48a5,5,0,0,1,.46-2.21,3.46,3.46,0,0,1,1.32-1.48,3.9,3.9,0,0,1,3.89,0,3.53,3.53,0,0,1,1.32,1.46A5.11,5.11,0,0,1,22.33,38Zm-2.1-.36a3.61,3.61,0,0,0-.42-1.93,1.36,1.36,0,0,0-1.22-.66c-1,0-1.57.78-1.63,2.32v.63a3.69,3.69,0,0,0,.42,1.93,1.45,1.45,0,0,0,2.44,0,3.58,3.58,0,0,0,.42-1.91Z" fill="#1976d2"/><path d="M31.06,39.49H29.94v3H27.89V34h3.35a3.76,3.76,0,0,1,2.38.67,2.27,2.27,0,0,1,.85,1.9A2.77,2.77,0,0,1,34.11,38,2.57,2.57,0,0,1,33,39l1.78,3.44v.09h-2.2Zm-1.12-1.58h1.3a1.14,1.14,0,0,0,.88-.31,1.18,1.18,0,0,0,.3-.86,1.21,1.21,0,0,0-.3-.87,1.15,1.15,0,0,0-.88-.31h-1.3Z" fill="#1976d2"/><path d="M44.61,40.24a.82.82,0,0,0-.32-.7A3.81,3.81,0,0,0,43.17,39a12.74,12.74,0,0,1-1.31-.52,2.49,2.49,0,0,1-1.66-2.24A2,2,0,0,1,40.62,35a2.57,2.57,0,0,1,1.16-.85,4.6,4.6,0,0,1,1.7-.3,3.92,3.92,0,0,1,1.65.33,2.64,2.64,0,0,1,1.14.93,2.46,2.46,0,0,1,.4,1.39H44.62a1,1,0,0,0-.32-.81,1.24,1.24,0,0,0-.86-.29,1.35,1.35,0,0,0-.87.25.71.71,0,0,0-.32.61.74.74,0,0,0,.35.6,4.4,4.4,0,0,0,1.23.55,7.65,7.65,0,0,1,1.46.61,2.45,2.45,0,0,1,1.38,2.2A2.09,2.09,0,0,1,45.83,42a3.83,3.83,0,0,1-2.32.64,4.61,4.61,0,0,1-1.88-.38,2.7,2.7,0,0,1-1.26-1,2.66,2.66,0,0,1-.43-1.49H42a1.28,1.28,0,0,0,.35,1,1.66,1.66,0,0,0,1.15.33,1.32,1.32,0,0,0,.81-.22A.72.72,0,0,0,44.61,40.24Z" fill="#1976d2"/><path d="M57.52,38.89H54.28v2H58.1v1.58H52.23V34h5.88v1.59H54.28v1.79h3.24Z" fill="#1976d2"/><path d="M70.25,35.57H67.69v6.94h-2V35.57H63.12V34h7.13Z" fill="#1976d2"/><path d="M77.81,42.51h-2V34h2Z" fill="#1976d2"/><path d="M51.92,13a18,18,0,0,0-.11-5C45,2.75,36.4,2.71,29.85,8a20,20,0,0,0,0,4.94A14.93,14.93,0,0,1,40.86,8.47,14.92,14.92,0,0,1,51.92,13" fill="#ffc400" fill-rule="evenodd"/><path d="M50.24,18.58a16.56,16.56,0,0,0,1.28-3.42,13.62,13.62,0,0,0-10.66-4.77A13.62,13.62,0,0,0,30.2,15.15C31.38,20.78,35.52,25,40.83,27a21.07,21.07,0,0,0,2.29-1.11c-5.3-2.13-9-6.58-9.51-9.43a9.29,9.29,0,0,1,7.25-2.77,11.93,11.93,0,0,1,9.38,4.88" fill="#1976d2" fill-rule="evenodd"/><path d="M6.81,46.33a2.06,2.06,0,0,1-.17.86,1.23,1.23,0,0,1-.48.57,1.29,1.29,0,0,1-.73.2,1.32,1.32,0,0,1-.73-.2,1.34,1.34,0,0,1-.49-.56A2.08,2.08,0,0,1,4,46.35v-.19a2.13,2.13,0,0,1,.17-.86,1.31,1.31,0,0,1,.49-.57,1.26,1.26,0,0,1,.72-.2,1.35,1.35,0,0,1,.73.19,1.37,1.37,0,0,1,.49.57,2.06,2.06,0,0,1,.17.86Zm-.58-.17A1.44,1.44,0,0,0,6,45.31a.69.69,0,0,0-.6-.3.67.67,0,0,0-.58.3,1.32,1.32,0,0,0-.22.83v.19a1.46,1.46,0,0,0,.21.85.71.71,0,0,0,.6.31.67.67,0,0,0,.59-.3,1.48,1.48,0,0,0,.21-.86Z" fill="#ffc400"/><path d="M9.51,46.7a1.52,1.52,0,0,1-.26.92.84.84,0,0,1-.7.34.85.85,0,0,1-.66-.27v1.18H7.33V45.43h.52l0,.25a.92.92,0,0,1,1.38,0,1.49,1.49,0,0,1,.26,1ZM9,46.65a1,1,0,0,0-.15-.59.5.5,0,0,0-.43-.22.52.52,0,0,0-.49.29v1.1a.53.53,0,0,0,.5.29.48.48,0,0,0,.42-.22A1.13,1.13,0,0,0,9,46.65Z" fill="#ffc400"/><path d="M11.08,48a1.15,1.15,0,0,1-.86-.33,1.21,1.21,0,0,1-.33-.89v-.07A1.53,1.53,0,0,1,10,46a1.13,1.13,0,0,1,.4-.46,1.08,1.08,0,0,1,.58-.16,1,1,0,0,1,.79.32,1.4,1.4,0,0,1,.27.92v.22H10.45a.77.77,0,0,0,.21.49.61.61,0,0,0,.45.18.77.77,0,0,0,.62-.31l.3.28a1,1,0,0,1-.39.35A1.31,1.31,0,0,1,11.08,48ZM11,45.83a.49.49,0,0,0-.37.16.93.93,0,0,0-.18.45h1.06v0a.62.62,0,0,0-.15-.42A.45.45,0,0,0,11,45.83Z" fill="#ffc400"/><path d="M13,45.43l0,.29a.88.88,0,0,1,.72-.33c.52,0,.78.29.79.88v1.65H14V46.31a.49.49,0,0,0-.11-.35.42.42,0,0,0-.33-.12.54.54,0,0,0-.5.31v1.77H12.5V45.43Z" fill="#ffc400"/><path d="M16.2,46.72H15v-.45h1.2Z" fill="#ffc400"/><path d="M18.06,47.24a.26.26,0,0,0-.13-.23,1.32,1.32,0,0,0-.4-.13,1.8,1.8,0,0,1-.48-.16.62.62,0,0,1-.42-.58.68.68,0,0,1,.27-.54,1.26,1.26,0,0,1,1.41,0,.67.67,0,0,1,.28.57H18a.34.34,0,0,0-.12-.27.48.48,0,0,0-.32-.11.49.49,0,0,0-.3.09.28.28,0,0,0-.11.23.23.23,0,0,0,.1.2,2.06,2.06,0,0,0,.44.14,2.64,2.64,0,0,1,.52.17.8.8,0,0,1,.27.24.64.64,0,0,1,.09.34.66.66,0,0,1-.27.55,1.26,1.26,0,0,1-.73.2,1.23,1.23,0,0,1-.55-.11.91.91,0,0,1-.37-.3.72.72,0,0,1-.13-.42h.54a.42.42,0,0,0,.15.31.58.58,0,0,0,.37.1.54.54,0,0,0,.33-.08A.26.26,0,0,0,18.06,47.24Z" fill="#ffc400"/><path d="M19,46.65a1.45,1.45,0,0,1,.14-.66,1.11,1.11,0,0,1,.41-.45,1.16,1.16,0,0,1,.6-.15,1,1,0,0,1,.81.32,1.24,1.24,0,0,1,.34.86v.13a1.45,1.45,0,0,1-.15.66,1,1,0,0,1-.4.44,1.13,1.13,0,0,1-.61.16,1.05,1.05,0,0,1-.84-.35,1.32,1.32,0,0,1-.31-.93Zm.55.05a1,1,0,0,0,.16.6.53.53,0,0,0,.44.22.52.52,0,0,0,.44-.22,1.1,1.1,0,0,0,.16-.65,1,1,0,0,0-.16-.6.55.55,0,0,0-.88,0A1.15,1.15,0,0,0,19.54,46.7Z" fill="#ffc400"/><path d="M23.27,47.67a.83.83,0,0,1-.7.29.79.79,0,0,1-.61-.23,1,1,0,0,1-.21-.69V45.43h.56V47q0,.48.39.48a.55.55,0,0,0,.55-.29V45.43h.56v2.49h-.52Z" fill="#ffc400"/><path d="M25.68,45.94l-.23,0a.51.51,0,0,0-.51.3v1.7h-.56V45.43h.53l0,.28a.61.61,0,0,1,.56-.32.54.54,0,0,1,.19,0Z" fill="#ffc400"/><path d="M27,47.52a.53.53,0,0,0,.35-.12.43.43,0,0,0,.14-.31H28a.89.89,0,0,1-.15.44,1,1,0,0,1-.36.32A1.22,1.22,0,0,1,27,48a1,1,0,0,1-.83-.34,1.34,1.34,0,0,1-.31-.93v0a1.32,1.32,0,0,1,.31-.91,1.17,1.17,0,0,1,1.55-.09,1,1,0,0,1,.29.68H27.5a.48.48,0,0,0-.49-.49.5.5,0,0,0-.42.2,1,1,0,0,0-.15.6v.09a1,1,0,0,0,.15.6A.5.5,0,0,0,27,47.52Z" fill="#ffc400"/><path d="M29.54,48a1.17,1.17,0,0,1-.86-.33,1.2,1.2,0,0,1-.32-.89v-.07A1.39,1.39,0,0,1,28.5,46a1,1,0,0,1,1-.62.94.94,0,0,1,.78.32,1.35,1.35,0,0,1,.28.92v.22H28.92a.71.71,0,0,0,.2.49.62.62,0,0,0,.46.18.77.77,0,0,0,.62-.31l.3.28a1,1,0,0,1-.4.35A1.25,1.25,0,0,1,29.54,48Zm-.06-2.13a.47.47,0,0,0-.37.16.77.77,0,0,0-.18.45H30v0a.62.62,0,0,0-.15-.42A.46.46,0,0,0,29.48,45.83Z" fill="#ffc400"/><path d="M32.84,44.83v.6h.44v.42h-.44v1.38a.29.29,0,0,0,.06.21.27.27,0,0,0,.2.06l.2,0v.43a1.64,1.64,0,0,1-.37.05c-.43,0-.64-.23-.64-.71v-1.4h-.41v-.42h.41v-.6Z" fill="#ffc400"/><path d="M33.53,46.65a1.45,1.45,0,0,1,.15-.66,1.11,1.11,0,0,1,.41-.45,1.16,1.16,0,0,1,.6-.15,1.06,1.06,0,0,1,.81.32,1.29,1.29,0,0,1,.34.86v.13a1.45,1.45,0,0,1-.14.66,1,1,0,0,1-.4.44,1.13,1.13,0,0,1-.61.16,1.05,1.05,0,0,1-.84-.35,1.33,1.33,0,0,1-.32-.93Zm.56.05a1,1,0,0,0,.16.6.53.53,0,0,0,.44.22.52.52,0,0,0,.44-.22,1.1,1.1,0,0,0,.16-.65,1.07,1.07,0,0,0-.16-.6.54.54,0,0,0-.44-.22.53.53,0,0,0-.44.22A1.15,1.15,0,0,0,34.09,46.7Z" fill="#ffc400"/><path d="M36.21,46.65a1.45,1.45,0,0,1,.15-.66,1.09,1.09,0,0,1,.4-.45,1.21,1.21,0,0,1,.6-.15,1.07,1.07,0,0,1,.82.32,1.29,1.29,0,0,1,.34.86v.13a1.59,1.59,0,0,1-.14.66,1,1,0,0,1-.4.44,1.13,1.13,0,0,1-.61.16,1.05,1.05,0,0,1-.84-.35,1.33,1.33,0,0,1-.32-.93Zm.56.05a1,1,0,0,0,.16.6.52.52,0,0,0,.44.22.53.53,0,0,0,.44-.22,1.17,1.17,0,0,0,.16-.65,1,1,0,0,0-.17-.6.52.52,0,0,0-.44-.22.53.53,0,0,0-.43.22A1.08,1.08,0,0,0,36.77,46.7Z" fill="#ffc400"/><path d="M39.59,47.92H39V44.39h.56Z" fill="#ffc400"/><path d="M41.59,47.24a.28.28,0,0,0-.13-.23,1.43,1.43,0,0,0-.4-.13,1.8,1.8,0,0,1-.48-.16.62.62,0,0,1-.42-.58.68.68,0,0,1,.27-.54,1.26,1.26,0,0,1,1.41,0,.68.68,0,0,1,.27.57h-.55a.34.34,0,0,0-.12-.27.48.48,0,0,0-.32-.11.49.49,0,0,0-.3.09.26.26,0,0,0-.11.23.23.23,0,0,0,.1.2,2.06,2.06,0,0,0,.44.14,2.64,2.64,0,0,1,.52.17.8.8,0,0,1,.27.24.64.64,0,0,1,.09.34.66.66,0,0,1-.27.55,1.26,1.26,0,0,1-.73.2,1.23,1.23,0,0,1-.55-.11.91.91,0,0,1-.37-.3.72.72,0,0,1-.13-.42h.54a.42.42,0,0,0,.15.31.58.58,0,0,0,.37.1.54.54,0,0,0,.33-.08A.26.26,0,0,0,41.59,47.24Z" fill="#ffc400"/><path d="M44,47.92V45.85h-.38v-.42H44v-.22a.82.82,0,0,1,.23-.64.86.86,0,0,1,.64-.23,1.76,1.76,0,0,1,.31,0v.44l-.22,0c-.26,0-.39.14-.39.41v.22h.5v.42h-.5v2.07Z" fill="#ffc400"/><path d="M45.35,46.65A1.45,1.45,0,0,1,45.5,46a1.09,1.09,0,0,1,.4-.45,1.21,1.21,0,0,1,.6-.15,1.07,1.07,0,0,1,.82.32,1.29,1.29,0,0,1,.34.86v.13a1.45,1.45,0,0,1-.14.66,1,1,0,0,1-.4.44,1.13,1.13,0,0,1-.61.16,1.05,1.05,0,0,1-.84-.35,1.33,1.33,0,0,1-.32-.93Zm.56.05a1,1,0,0,0,.16.6.52.52,0,0,0,.44.22A.53.53,0,0,0,47,47.3a1.17,1.17,0,0,0,.16-.65,1.07,1.07,0,0,0-.16-.6.55.55,0,0,0-.45-.22.53.53,0,0,0-.43.22A1.08,1.08,0,0,0,45.91,46.7Z" fill="#ffc400"/><path d="M49.43,45.94l-.22,0a.51.51,0,0,0-.52.3v1.7h-.56V45.43h.54v.28a.61.61,0,0,1,.56-.32.56.56,0,0,1,.2,0Z" fill="#ffc400"/><path d="M53.57,47.48a1,1,0,0,1-.5.36,2.07,2.07,0,0,1-.73.12,1.38,1.38,0,0,1-.74-.19,1.3,1.3,0,0,1-.5-.54,1.84,1.84,0,0,1-.18-.83v-.26A1.8,1.8,0,0,1,51.28,45a1.26,1.26,0,0,1,1-.42,1.37,1.37,0,0,1,.89.27,1.18,1.18,0,0,1,.39.8H53a.63.63,0,0,0-.7-.6.68.68,0,0,0-.59.28,1.34,1.34,0,0,0-.21.82v.26a1.38,1.38,0,0,0,.23.84.74.74,0,0,0,.63.3.88.88,0,0,0,.64-.2v-.66h-.69V46.2h1.26Z" fill="#ffc400"/><path d="M56.76,46.83a1.19,1.19,0,0,1-.39.83,1.36,1.36,0,0,1-.92.3,1.27,1.27,0,0,1-.7-.19,1.19,1.19,0,0,1-.47-.54,1.86,1.86,0,0,1-.17-.81v-.31a1.84,1.84,0,0,1,.17-.83,1.26,1.26,0,0,1,.48-.56,1.34,1.34,0,0,1,.72-.19,1.28,1.28,0,0,1,.89.3,1.2,1.2,0,0,1,.39.85h-.57a.79.79,0,0,0-.22-.52.66.66,0,0,0-.49-.16.68.68,0,0,0-.58.27,1.36,1.36,0,0,0-.21.82v.29a1.48,1.48,0,0,0,.19.83.64.64,0,0,0,.57.28.79.79,0,0,0,.52-.15.87.87,0,0,0,.22-.51Z" fill="#ffc400"/><path d="M57.86,46.68v1.24h-.58V44.57h1.28a1.28,1.28,0,0,1,.89.3,1,1,0,0,1,.33.77,1,1,0,0,1-.32.76,1.34,1.34,0,0,1-.91.28Zm0-.47h.7a.65.65,0,0,0,.47-.15.53.53,0,0,0,.17-.42.58.58,0,0,0-.17-.43.61.61,0,0,0-.45-.17h-.72Z" fill="#ffc400"/><path d="M62.8,47.24a.26.26,0,0,0-.13-.23,1.32,1.32,0,0,0-.4-.13,1.8,1.8,0,0,1-.48-.16.62.62,0,0,1-.42-.58.68.68,0,0,1,.27-.54,1.26,1.26,0,0,1,1.41,0,.67.67,0,0,1,.28.57h-.56a.34.34,0,0,0-.12-.27.48.48,0,0,0-.32-.11.49.49,0,0,0-.3.09.28.28,0,0,0-.11.23.22.22,0,0,0,.11.2,1.75,1.75,0,0,0,.43.14,2.64,2.64,0,0,1,.52.17.8.8,0,0,1,.27.24.64.64,0,0,1,.09.34.66.66,0,0,1-.27.55,1.26,1.26,0,0,1-.73.2,1.16,1.16,0,0,1-.54-.11.88.88,0,0,1-.38-.3.72.72,0,0,1-.13-.42h.54a.42.42,0,0,0,.15.31.6.6,0,0,0,.37.1.52.52,0,0,0,.33-.08A.26.26,0,0,0,62.8,47.24Z" fill="#ffc400"/><path d="M64.92,48a1.17,1.17,0,0,1-.86-.33,1.2,1.2,0,0,1-.32-.89v-.07a1.39,1.39,0,0,1,.14-.66,1,1,0,0,1,1-.62.94.94,0,0,1,.78.32,1.35,1.35,0,0,1,.28.92v.22H64.3a.71.71,0,0,0,.2.49.62.62,0,0,0,.46.18.77.77,0,0,0,.62-.31l.3.28a1,1,0,0,1-.4.35A1.25,1.25,0,0,1,64.92,48Zm-.06-2.13a.47.47,0,0,0-.37.16.77.77,0,0,0-.18.45h1.06v0a.62.62,0,0,0-.15-.42A.46.46,0,0,0,64.86,45.83Z" fill="#ffc400"/><path d="M67.37,47.52a.51.51,0,0,0,.35-.12.48.48,0,0,0,.15-.31h.52a.79.79,0,0,1-.14.44,1,1,0,0,1-.37.32,1.18,1.18,0,0,1-.5.11,1.06,1.06,0,0,1-.83-.34,1.33,1.33,0,0,1-.3-.93v0a1.31,1.31,0,0,1,.3-.91,1,1,0,0,1,.83-.34,1,1,0,0,1,.72.25.93.93,0,0,1,.29.68h-.52a.54.54,0,0,0-.15-.35.48.48,0,0,0-.35-.14A.47.47,0,0,0,67,46a1,1,0,0,0-.15.6v.09a1.06,1.06,0,0,0,.14.6A.5.5,0,0,0,67.37,47.52Z" fill="#ffc400"/><path d="M70.32,47.67a.85.85,0,0,1-.7.29.79.79,0,0,1-.61-.23A1,1,0,0,1,68.8,47V45.43h.56V47q0,.48.39.48a.56.56,0,0,0,.55-.29V45.43h.56v2.49h-.53Z" fill="#ffc400"/><path d="M72.73,45.94l-.23,0a.52.52,0,0,0-.52.3v1.7h-.55V45.43H72v.28a.62.62,0,0,1,.56-.32.56.56,0,0,1,.2,0Z" fill="#ffc400"/><path d="M73.08,44.79a.33.33,0,0,1,.08-.22.36.36,0,0,1,.24-.08.32.32,0,0,1,.23.08.29.29,0,0,1,.08.22.28.28,0,0,1-.08.21.32.32,0,0,1-.23.08.36.36,0,0,1-.24-.08A.32.32,0,0,1,73.08,44.79Zm.59,3.13h-.55V45.43h.55Z" fill="#ffc400"/><path d="M75,44.83v.6h.44v.42H75v1.38a.29.29,0,0,0,.06.21.25.25,0,0,0,.2.06l.19,0v.43a1.56,1.56,0,0,1-.36.05c-.43,0-.65-.23-.65-.71v-1.4H74v-.42h.41v-.6Z" fill="#ffc400"/><path d="M76.71,47.12l.51-1.69h.59l-1,2.86a.81.81,0,0,1-.77.63.84.84,0,0,1-.27,0v-.44h.1a.49.49,0,0,0,.32-.08.48.48,0,0,0,.17-.25l.08-.22-.87-2.47h.6Z" fill="#ffc400"/></svg>