<svg xmlns="http://www.w3.org/2000/svg" width="111.5" height="31.5" viewBox="0 0 111.5 31.5"><title>white-vertical-logo-lockup</title><rect width="111.5" height="31.5" fill="#fff"/><path d="M38.9,14H35.59v3.4H33.53V8.91h5.71V10.5H35.59v2H38.9Z" fill="#1976d2"/><path d="M51.82,13.35a5.16,5.16,0,0,1-.46,2.21A3.4,3.4,0,0,1,50,17a3.64,3.64,0,0,1-1.94.52,3.79,3.79,0,0,1-1.94-.5,3.43,3.43,0,0,1-1.31-1.43,4.92,4.92,0,0,1-.5-2.14V13a5.18,5.18,0,0,1,.46-2.22,3.43,3.43,0,0,1,1.32-1.47,3.87,3.87,0,0,1,3.89,0,3.38,3.38,0,0,1,1.32,1.47A4.89,4.89,0,0,1,51.82,13ZM49.73,13a3.65,3.65,0,0,0-.43-1.94,1.35,1.35,0,0,0-1.21-.65c-1,0-1.58.77-1.64,2.32v.62a3.67,3.67,0,0,0,.41,1.93A1.36,1.36,0,0,0,48.1,16a1.34,1.34,0,0,0,1.2-.66,3.63,3.63,0,0,0,.43-1.9Z" fill="#1976d2"/><path d="M60.55,14.42H59.44v3H57.38V8.91h3.36a3.79,3.79,0,0,1,2.37.67A2.29,2.29,0,0,1,64,11.49,2.76,2.76,0,0,1,63.6,13a2.53,2.53,0,0,1-1.12.95l1.78,3.44v.09H62.05Zm-1.11-1.58h1.3a1.15,1.15,0,0,0,.88-.31,1.17,1.17,0,0,0,.29-.86,1.24,1.24,0,0,0-.29-.86,1.17,1.17,0,0,0-.88-.32h-1.3Z" fill="#1976d2"/><path d="M74.11,15.17a.85.85,0,0,0-.32-.7A3.94,3.94,0,0,0,72.67,14a10.39,10.39,0,0,1-1.32-.52,2.48,2.48,0,0,1-1.65-2.24,2,2,0,0,1,.41-1.25,2.61,2.61,0,0,1,1.17-.84A4.37,4.37,0,0,1,73,8.79a4,4,0,0,1,1.65.33,2.62,2.62,0,0,1,1.13.94,2.4,2.4,0,0,1,.4,1.38h-2a1,1,0,0,0-.32-.81,1.24,1.24,0,0,0-.86-.28,1.41,1.41,0,0,0-.87.24.71.71,0,0,0,0,1.21,4.5,4.5,0,0,0,1.24.55,7.49,7.49,0,0,1,1.45.62,2.43,2.43,0,0,1,1.38,2.19,2.08,2.08,0,0,1-.84,1.76,3.71,3.71,0,0,1-2.31.64,4.54,4.54,0,0,1-1.88-.37,2.91,2.91,0,0,1-1.27-1,2.68,2.68,0,0,1-.42-1.49H71.5a1.34,1.34,0,0,0,.35,1A1.73,1.73,0,0,0,73,16a1.29,1.29,0,0,0,.8-.22A.71.71,0,0,0,74.11,15.17Z" fill="#1976d2"/><path d="M87,13.82H83.78v2H87.6v1.58H81.72V8.91h5.89V10.5H83.78v1.8H87Z" fill="#1976d2"/><path d="M99.75,10.5H97.19v6.94H95.13V10.5H92.62V8.91h7.13Z" fill="#1976d2"/><path d="M107.31,17.44h-2V8.91h2Z" fill="#1976d2"/><path d="M26.47,13.18a18.41,18.41,0,0,0-.11-5C19.5,3,11,2.93,4.4,8.22a20.47,20.47,0,0,0-.05,4.94A15,15,0,0,1,15.41,8.69a14.92,14.92,0,0,1,11.06,4.49" fill="#ffc400" fill-rule="evenodd"/><path d="M24.79,18.8a16.56,16.56,0,0,0,1.28-3.42,13.64,13.64,0,0,0-10.66-4.77A13.62,13.62,0,0,0,4.75,15.37C5.93,21,10.07,25.19,15.38,27.23a21.07,21.07,0,0,0,2.29-1.11c-5.3-2.13-9-6.58-9.51-9.43a9.28,9.28,0,0,1,7.25-2.77,11.94,11.94,0,0,1,9.38,4.88" fill="#1976d2" fill-rule="evenodd"/><path d="M36.3,21.27a2,2,0,0,1-.17.86,1.23,1.23,0,0,1-.48.57,1.41,1.41,0,0,1-1.45,0,1.25,1.25,0,0,1-.49-.57,1.9,1.9,0,0,1-.18-.85V21.1a2.14,2.14,0,0,1,.17-.87,1.31,1.31,0,0,1,.49-.57,1.38,1.38,0,0,1,.73-.2,1.34,1.34,0,0,1,.72.2,1.28,1.28,0,0,1,.49.56,2.09,2.09,0,0,1,.17.86Zm-.58-.18a1.46,1.46,0,0,0-.21-.85.73.73,0,0,0-1.18,0,1.41,1.41,0,0,0-.22.83v.2a1.41,1.41,0,0,0,.22.85.74.74,0,0,0,1.19,0,1.52,1.52,0,0,0,.2-.85Z" fill="#ffc400"/><path d="M39,21.63a1.44,1.44,0,0,1-.26.92.89.89,0,0,1-1.35.08V23.8h-.56V20.37h.51l0,.25a.8.8,0,0,1,.66-.3.85.85,0,0,1,.72.34,1.52,1.52,0,0,1,.25.94Zm-.55-.05A1,1,0,0,0,38.3,21a.47.47,0,0,0-.42-.22.51.51,0,0,0-.49.28v1.1a.51.51,0,0,0,.49.29.49.49,0,0,0,.42-.21A1.17,1.17,0,0,0,38.45,21.58Z" fill="#ffc400"/><path d="M40.57,22.9a1.18,1.18,0,0,1-.86-.34,1.21,1.21,0,0,1-.33-.89V21.6a1.56,1.56,0,0,1,.14-.66,1.08,1.08,0,0,1,.41-.46,1,1,0,0,1,.58-.16,1,1,0,0,1,.78.32,1.42,1.42,0,0,1,.28.92v.22H39.94a.77.77,0,0,0,.21.49.61.61,0,0,0,.45.18.75.75,0,0,0,.63-.31l.3.29a1,1,0,0,1-.4.34A1.28,1.28,0,0,1,40.57,22.9Zm-.07-2.13a.47.47,0,0,0-.37.16.89.89,0,0,0-.18.45H41v-.05a.8.8,0,0,0-.15-.42A.5.5,0,0,0,40.5,20.77Z" fill="#ffc400"/><path d="M42.52,20.37v.28a.92.92,0,0,1,.73-.33c.51,0,.78.3.79.89v1.64h-.56V21.24a.56.56,0,0,0-.1-.35.42.42,0,0,0-.34-.11.54.54,0,0,0-.5.3v1.77H42V20.37Z" fill="#ffc400"/><path d="M45.7,21.65H44.49V21.2H45.7Z" fill="#ffc400"/><path d="M47.55,22.17a.25.25,0,0,0-.12-.22,1.47,1.47,0,0,0-.41-.14,2.27,2.27,0,0,1-.48-.15.64.64,0,0,1-.14-1.12,1,1,0,0,1,.69-.22,1.12,1.12,0,0,1,.72.22.71.71,0,0,1,.27.57h-.56a.36.36,0,0,0-.12-.27.45.45,0,0,0-.31-.1.51.51,0,0,0-.3.08.27.27,0,0,0-.12.23.23.23,0,0,0,.11.2,1.24,1.24,0,0,0,.43.14,2.07,2.07,0,0,1,.52.18.67.67,0,0,1,.28.24.59.59,0,0,1,.09.34.64.64,0,0,1-.28.54,1.17,1.17,0,0,1-.73.21,1.33,1.33,0,0,1-.54-.11,1,1,0,0,1-.37-.31.7.7,0,0,1-.14-.41h.55a.36.36,0,0,0,.14.3.62.62,0,0,0,.37.11.5.5,0,0,0,.33-.09A.25.25,0,0,0,47.55,22.17Z" fill="#ffc400"/><path d="M48.48,21.58a1.51,1.51,0,0,1,.14-.65,1.06,1.06,0,0,1,.41-.45,1.21,1.21,0,0,1,1.42.16,1.31,1.31,0,0,1,.34.86v.13a1.53,1.53,0,0,1-.14.66,1.11,1.11,0,0,1-.41.45,1.17,1.17,0,0,1-.6.16,1.11,1.11,0,0,1-.85-.35,1.37,1.37,0,0,1-.31-.94Zm.56.05a1,1,0,0,0,.16.6.5.5,0,0,0,.44.22.52.52,0,0,0,.44-.22,1.16,1.16,0,0,0,.15-.65.94.94,0,0,0-.16-.59.55.55,0,0,0-.87,0A1.1,1.1,0,0,0,49,21.63Z" fill="#ffc400"/><path d="M52.77,22.61a.89.89,0,0,1-.7.29.75.75,0,0,1-.61-.24,1,1,0,0,1-.21-.68V20.37h.56V22c0,.31.13.47.39.47a.56.56,0,0,0,.55-.29V20.37h.55v2.48h-.52Z" fill="#ffc400"/><path d="M55.17,20.88a.82.82,0,0,0-.22,0,.51.51,0,0,0-.52.29v1.7h-.56V20.37h.53l0,.27a.63.63,0,0,1,.56-.32.6.6,0,0,1,.2,0Z" fill="#ffc400"/><path d="M56.5,22.45a.51.51,0,0,0,.35-.12A.44.44,0,0,0,57,22h.52a.76.76,0,0,1-.14.43,1.06,1.06,0,0,1-.87.44,1.09,1.09,0,0,1-.83-.34,1.37,1.37,0,0,1-.3-.93v-.06a1.33,1.33,0,0,1,.3-.91,1.16,1.16,0,0,1,1.55-.08.91.91,0,0,1,.29.68H57a.56.56,0,0,0-.15-.36.48.48,0,0,0-.35-.13.47.47,0,0,0-.41.19,1,1,0,0,0-.15.6v.09a1,1,0,0,0,.14.6A.5.5,0,0,0,56.5,22.45Z" fill="#ffc400"/><path d="M59,22.9a1.16,1.16,0,0,1-.86-.34,1.21,1.21,0,0,1-.33-.89V21.6a1.56,1.56,0,0,1,.14-.66,1.13,1.13,0,0,1,.4-.46,1.08,1.08,0,0,1,.58-.16,1,1,0,0,1,.79.32,1.42,1.42,0,0,1,.27.92v.22H58.41a.77.77,0,0,0,.21.49.61.61,0,0,0,.45.18.73.73,0,0,0,.62-.31l.31.29a1,1,0,0,1-.4.34A1.32,1.32,0,0,1,59,22.9ZM59,20.77a.46.46,0,0,0-.37.16.89.89,0,0,0-.18.45h1.06v-.05a.66.66,0,0,0-.15-.42A.46.46,0,0,0,59,20.77Z" fill="#ffc400"/><path d="M62.34,19.76v.61h.44v.41h-.44v1.39a.34.34,0,0,0,0,.2.28.28,0,0,0,.2.06.68.68,0,0,0,.2,0v.43a1.24,1.24,0,0,1-.37.06c-.43,0-.64-.24-.64-.71V20.78h-.41v-.41h.41v-.61Z" fill="#ffc400"/><path d="M63,21.58a1.51,1.51,0,0,1,.14-.65,1,1,0,0,1,.41-.45,1.08,1.08,0,0,1,.6-.16,1.11,1.11,0,0,1,.82.32,1.25,1.25,0,0,1,.33.86v.13a1.53,1.53,0,0,1-.14.66,1.11,1.11,0,0,1-.41.45,1.2,1.2,0,0,1-.61.16,1.09,1.09,0,0,1-.84-.35,1.37,1.37,0,0,1-.31-.94Zm.56.05a1,1,0,0,0,.15.6.52.52,0,0,0,.44.22.5.5,0,0,0,.44-.22,1.08,1.08,0,0,0,.16-.65.94.94,0,0,0-.16-.59.55.55,0,0,0-.87,0A1.1,1.1,0,0,0,63.59,21.63Z" fill="#ffc400"/><path d="M65.7,21.58a1.38,1.38,0,0,1,.15-.65,1,1,0,0,1,.41-.45,1.08,1.08,0,0,1,.6-.16,1.1,1.1,0,0,1,.81.32,1.31,1.31,0,0,1,.34.86v.13a1.39,1.39,0,0,1-.14.66,1.09,1.09,0,0,1-.4.45,1.23,1.23,0,0,1-.61.16,1.09,1.09,0,0,1-.84-.35,1.37,1.37,0,0,1-.32-.94Zm.56.05a1,1,0,0,0,.16.6.51.51,0,0,0,.44.22.5.5,0,0,0,.44-.22,1.08,1.08,0,0,0,.16-.65A1,1,0,0,0,67.3,21a.56.56,0,0,0-.88,0A1.17,1.17,0,0,0,66.26,21.63Z" fill="#ffc400"/><path d="M69.08,22.85h-.56V19.32h.56Z" fill="#ffc400"/><path d="M71.08,22.17A.25.25,0,0,0,71,22a1.47,1.47,0,0,0-.41-.14,2.27,2.27,0,0,1-.48-.15.63.63,0,0,1-.41-.59.65.65,0,0,1,.27-.53,1,1,0,0,1,.69-.22,1.08,1.08,0,0,1,.71.22.69.69,0,0,1,.28.57h-.56a.36.36,0,0,0-.12-.27.45.45,0,0,0-.31-.1.51.51,0,0,0-.3.08.27.27,0,0,0-.12.23.23.23,0,0,0,.11.2,1.16,1.16,0,0,0,.43.14,2.07,2.07,0,0,1,.52.18.67.67,0,0,1,.28.24.59.59,0,0,1,.09.34.66.66,0,0,1-.28.54,1.19,1.19,0,0,1-.73.21,1.33,1.33,0,0,1-.54-.11.88.88,0,0,1-.37-.31.7.7,0,0,1-.14-.41h.54a.4.4,0,0,0,.15.3.62.62,0,0,0,.37.11.5.5,0,0,0,.33-.09A.25.25,0,0,0,71.08,22.17Z" fill="#ffc400"/><path d="M73.48,22.85V20.78H73.1v-.41h.38v-.23a.86.86,0,0,1,.23-.64.88.88,0,0,1,.64-.23,1.25,1.25,0,0,1,.32.05l0,.43-.21,0c-.27,0-.4.14-.4.42v.22h.5v.41H74v2.07Z" fill="#ffc400"/><path d="M74.85,21.58a1.38,1.38,0,0,1,.14-.65,1,1,0,0,1,.41-.45,1.08,1.08,0,0,1,.6-.16,1.12,1.12,0,0,1,.82.32,1.3,1.3,0,0,1,.33.86v.13a1.4,1.4,0,0,1-.15.66,1,1,0,0,1-.4.45,1.2,1.2,0,0,1-.61.16,1.09,1.09,0,0,1-.84-.35,1.37,1.37,0,0,1-.31-.94Zm.55.05a1,1,0,0,0,.16.6.52.52,0,0,0,.44.22.5.5,0,0,0,.44-.22,1.08,1.08,0,0,0,.16-.65.94.94,0,0,0-.16-.59.52.52,0,0,0-.44-.22.54.54,0,0,0-.44.21A1.17,1.17,0,0,0,75.4,21.63Z" fill="#ffc400"/><path d="M78.93,20.88a.9.9,0,0,0-.23,0,.51.51,0,0,0-.52.29v1.7h-.55V20.37h.53v.27a.64.64,0,0,1,.56-.32.56.56,0,0,1,.2,0Z" fill="#ffc400"/><path d="M83.07,22.42a1.16,1.16,0,0,1-.5.35,2.11,2.11,0,0,1-.73.13,1.55,1.55,0,0,1-.75-.19,1.34,1.34,0,0,1-.5-.55,2,2,0,0,1-.18-.83v-.26a1.77,1.77,0,0,1,.36-1.18,1.24,1.24,0,0,1,1-.43,1.3,1.3,0,0,1,.89.28,1.21,1.21,0,0,1,.4.79H82.5a.64.64,0,0,0-.7-.6.7.7,0,0,0-.6.28A1.53,1.53,0,0,0,81,21v.25a1.38,1.38,0,0,0,.23.84.75.75,0,0,0,.64.3.86.86,0,0,0,.63-.2v-.65H81.8v-.45h1.27Z" fill="#ffc400"/><path d="M86.26,21.76a1.24,1.24,0,0,1-.4.84,1.33,1.33,0,0,1-.91.3,1.37,1.37,0,0,1-.71-.19,1.3,1.3,0,0,1-.47-.54,2,2,0,0,1-.17-.81v-.31a2,2,0,0,1,.17-.84,1.23,1.23,0,0,1,.48-.55,1.34,1.34,0,0,1,.72-.2,1.28,1.28,0,0,1,.89.3,1.25,1.25,0,0,1,.4.85h-.58a.86.86,0,0,0-.21-.52.68.68,0,0,0-.5-.16.67.67,0,0,0-.58.28,1.45,1.45,0,0,0-.21.81v.29a1.45,1.45,0,0,0,.2.83.65.65,0,0,0,.57.29.71.71,0,0,0,.51-.16.81.81,0,0,0,.22-.51Z" fill="#ffc400"/><path d="M87.36,21.61v1.24h-.58V19.51h1.27a1.26,1.26,0,0,1,.89.29,1,1,0,0,1,.33.77,1,1,0,0,1-.32.77,1.36,1.36,0,0,1-.9.27Zm0-.47h.69a.74.74,0,0,0,.48-.14.54.54,0,0,0,.16-.42.55.55,0,0,0-.17-.44.61.61,0,0,0-.45-.16h-.71Z" fill="#ffc400"/><path d="M92.29,22.17a.25.25,0,0,0-.12-.22,1.47,1.47,0,0,0-.41-.14,2.27,2.27,0,0,1-.48-.15.64.64,0,0,1-.14-1.12,1,1,0,0,1,.69-.22,1.12,1.12,0,0,1,.72.22.71.71,0,0,1,.27.57h-.56a.36.36,0,0,0-.12-.27.45.45,0,0,0-.31-.1.51.51,0,0,0-.3.08.27.27,0,0,0-.12.23.23.23,0,0,0,.11.2,1.24,1.24,0,0,0,.43.14,1.94,1.94,0,0,1,.52.18.67.67,0,0,1,.28.24.59.59,0,0,1,.09.34.64.64,0,0,1-.28.54,1.17,1.17,0,0,1-.73.21,1.33,1.33,0,0,1-.54-.11,1,1,0,0,1-.37-.31.7.7,0,0,1-.14-.41h.55a.36.36,0,0,0,.14.3.62.62,0,0,0,.37.11.5.5,0,0,0,.33-.09A.25.25,0,0,0,92.29,22.17Z" fill="#ffc400"/><path d="M94.42,22.9a1.16,1.16,0,0,1-.86-.34,1.21,1.21,0,0,1-.33-.89V21.6a1.56,1.56,0,0,1,.14-.66,1.13,1.13,0,0,1,.4-.46,1.08,1.08,0,0,1,.58-.16,1,1,0,0,1,.79.32,1.42,1.42,0,0,1,.27.92v.22H93.79a.77.77,0,0,0,.21.49.61.61,0,0,0,.45.18.74.74,0,0,0,.62-.31l.31.29a1,1,0,0,1-.4.34A1.32,1.32,0,0,1,94.42,22.9Zm-.07-2.13a.46.46,0,0,0-.37.16.89.89,0,0,0-.18.45h1.06v-.05a.66.66,0,0,0-.15-.42A.46.46,0,0,0,94.35,20.77Z" fill="#ffc400"/><path d="M96.87,22.45a.49.49,0,0,0,.34-.12.4.4,0,0,0,.15-.3h.53a.86.86,0,0,1-.15.43,1,1,0,0,1-.37.32,1.06,1.06,0,0,1-.5.12,1.07,1.07,0,0,1-.82-.34,1.32,1.32,0,0,1-.31-.93v-.06a1.29,1.29,0,0,1,.31-.91,1,1,0,0,1,.82-.34,1,1,0,0,1,.72.26.92.92,0,0,1,.3.68h-.53a.55.55,0,0,0-.14-.36.55.55,0,0,0-.77.06,1,1,0,0,0-.15.6v.09a1,1,0,0,0,.15.6A.48.48,0,0,0,96.87,22.45Z" fill="#ffc400"/><path d="M99.81,22.61a.85.85,0,0,1-.69.29.78.78,0,0,1-.62-.24,1.06,1.06,0,0,1-.2-.68V20.37h.55V22c0,.31.13.47.4.47a.56.56,0,0,0,.55-.29V20.37h.55v2.48h-.52Z" fill="#ffc400"/><path d="M102.22,20.88a.86.86,0,0,0-.23,0,.5.5,0,0,0-.51.29v1.7h-.56V20.37h.53l0,.27a.63.63,0,0,1,.56-.32.5.5,0,0,1,.19,0Z" fill="#ffc400"/><path d="M102.58,19.72a.26.26,0,0,1,.08-.21.34.34,0,0,1,.46,0,.29.29,0,0,1,0,.42.37.37,0,0,1-.46,0A.26.26,0,0,1,102.58,19.72Zm.59,3.13h-.56V20.37h.56Z" fill="#ffc400"/><path d="M104.47,19.76v.61h.44v.41h-.44v1.39a.28.28,0,0,0,.06.2.27.27,0,0,0,.2.06.68.68,0,0,0,.2,0v.43a1.24,1.24,0,0,1-.37.06c-.43,0-.64-.24-.64-.71V20.78h-.41v-.41h.41v-.61Z" fill="#ffc400"/><path d="M106.21,22.05l.5-1.68h.6l-1,2.86a.8.8,0,0,1-.77.62.93.93,0,0,1-.27,0v-.43h.11a.52.52,0,0,0,.31-.08.51.51,0,0,0,.17-.26l.08-.21-.87-2.47h.6Z" fill="#ffc400"/></svg>