<svg xmlns="http://www.w3.org/2000/svg" width="60" height="60" viewBox="0 0 60 60"><title>white-logo</title><rect width="60" height="60" fill="#fff"/><path d="M53.82,25.23a40.84,40.84,0,0,0-.26-11.12C38.19,2.32,19,2.24,4.32,14.11A44.37,44.37,0,0,0,4.21,25.2c5.52-6.08,14.57-10,24.79-10s19.3,4,24.82,10.08" fill="#ffc400" fill-rule="evenodd"/><path d="M50.05,37.83a37.33,37.33,0,0,0,2.87-7.66C47.77,23.72,39,19.47,29,19.47S10.25,23.71,5.1,30.15C7.73,42.78,17,52.18,28.94,56.76a46,46,0,0,0,5.13-2.5C22.19,49.49,13.81,39.51,12.75,33.12,17.26,28.94,21.21,26.9,29,26.9s16.57,4.35,21,10.93" fill="#1976d2" fill-rule="evenodd"/></svg>