<?xml version="1.0" encoding="utf-8"?>
<!-- Generator: Adobe Illustrator 16.0.0, SVG Export Plug-In . SVG Version: 6.00 Build 0)  -->
<!DOCTYPE svg PUBLIC "-//W3C//DTD SVG 1.1//EN" "http://www.w3.org/Graphics/SVG/1.1/DTD/svg11.dtd">
<svg version="1.1" id="Layer_1" xmlns="http://www.w3.org/2000/svg" xmlns:xlink="http://www.w3.org/1999/xlink" x="0px" y="0px"
	 width="54.767px" height="54.765px" viewBox="0 0 54.767 54.765" enable-background="new 0 0 54.767 54.765" xml:space="preserve">
<g>
	<polygon fill="#B8B8B8" points="25,29.839 30.115,27.188 25,24.519 	"/>
	<path fill="#B8B8B8" d="M27.383,9.265c-10.006,0-18.117,8.111-18.117,18.117c0,10.006,8.111,18.118,18.117,18.118
		c10.007,0,18.118-8.111,18.118-18.118C45.501,17.376,37.39,9.265,27.383,9.265z M37,28.098c0,1.532-0.263,3.064-0.263,3.064
		s-0.26,1.305-0.828,1.879c-0.72,0.754-1.525,0.759-1.896,0.802c-2.65,0.191-6.625,0.198-6.625,0.198s-4.917-0.045-6.432-0.19
		c-0.422-0.079-1.357-0.056-2.077-0.81c-0.568-0.574-0.732-1.879-0.732-1.879S18,29.63,18,28.098v-1.437
		c0-1.532,0.147-3.029,0.147-3.029s0.144-1.27,0.711-1.845c0.72-0.754,1.526-0.689,1.896-0.733C23.405,20.862,27.379,21,27.379,21
		h0.008c0,0,3.993-0.138,6.643,0.054c0.37,0.044,1.196-0.09,1.916,0.664c0.568,0.575,0.791,1.88,0.791,1.88S37,25.129,37,26.661
		V28.098z"/>
</g>
</svg>
