<?xml version="1.0" encoding="utf-8"?>
<!-- Generator: Adobe Illustrator 16.0.0, SVG Export Plug-In . SVG Version: 6.00 Build 0)  -->
<!DOCTYPE svg PUBLIC "-//W3C//DTD SVG 1.1//EN" "http://www.w3.org/Graphics/SVG/1.1/DTD/svg11.dtd">
<svg version="1.1" id="Layer_1" xmlns="http://www.w3.org/2000/svg" xmlns:xlink="http://www.w3.org/1999/xlink" x="0px" y="0px"
	 width="54.767px" height="54.765px" viewBox="0 0 54.767 54.765" enable-background="new 0 0 54.767 54.765" xml:space="preserve">
<path fill="#B8B8B8" d="M27.384,9.266c-10.006,0-18.118,8.111-18.118,18.117c0,10.007,8.112,18.117,18.118,18.117
	S45.5,37.39,45.5,27.383C45.5,17.377,37.39,9.266,27.384,9.266z M37.02,23.271c0.009,0.206,0.014,0.413,0.014,0.621
	c0,6.346-4.83,13.662-13.662,13.662c-2.712,0-5.236-0.795-7.36-2.157c0.375,0.044,0.758,0.066,1.145,0.066
	c2.25,0,4.32-0.768,5.963-2.055c-2.101-0.039-3.874-1.428-4.485-3.335c0.293,0.057,0.594,0.086,0.903,0.086
	c0.438,0,1.386-0.059,1.79-0.168C19.13,29.552,18,27.609,18,25.284c0-0.021,0-0.04,0-0.061c0,0.36,0.864,0.576,1.651,0.601
	c-1.288-0.861-2.397-2.331-2.397-3.997c0-0.879,0.105-1.704,0.518-2.413c2.369,2.904,5.841,4.816,9.831,5.017
	c-0.081-0.352-0.156-0.718-0.156-1.095c0-2.651,2.134-4.801,4.785-4.801c1.381,0,2.621,0.583,3.497,1.516
	c1.093-0.216,2.118-0.615,3.045-1.165c-0.358,1.121-1.122,2.062-2.114,2.657c0.971-0.116,1.896-0.375,2.757-0.757
	C38.774,21.749,37.958,22.595,37.02,23.271z"/>
</svg>
